<svg width="762" height="762" viewBox="0 0 762 762" fill="none" xmlns="http://www.w3.org/2000/svg">
<path d="M0.910156 439.93L34.9102 473.61C35.456 474.236 36.0334 474.833 36.6401 475.4C37.1667 475.742 37.7262 476.03 38.3102 476.26C38.5888 475.731 38.8036 475.17 38.9501 474.59C39.0102 473.761 39.0102 472.929 38.9501 472.1C38.9501 445.947 38.9501 419.797 38.9501 393.65C39.0109 392.985 39.0109 392.315 38.9501 391.65C38.7652 390.922 38.5314 390.207 38.2502 389.51C37.5019 389.787 36.7979 390.171 36.1602 390.65C32.2302 394.48 28.3702 398.38 24.4902 402.26L0.910156 425.93V417.93C5.34016 413.71 9.84019 409.55 14.1902 405.25C22.1202 397.41 29.9401 389.48 37.8401 381.63C39.1901 380.28 40.5701 377.9 42.7101 379.36C43.8301 380.13 44.3101 382.48 44.3201 384.11C44.4135 416.05 44.4135 447.993 44.3201 479.94C44.3201 482.26 45.4601 485.7 42.3201 486.39C40.8001 486.73 38.3201 484.52 36.8201 482.99C25.8201 472.14 14.9102 461.16 3.94019 450.25C2.98725 449.405 1.9746 448.63 0.910156 447.93V439.93Z" fill="#212C7B"/>
<path d="M611.91 0.930176L580.6 32.5002C579.855 33.1651 579.163 33.8873 578.53 34.6602C577.53 36.0102 578.02 36.8102 579.65 36.9102C580.65 36.9702 581.65 36.9802 582.65 36.9902H660.65C660.983 37.0157 661.317 37.0157 661.65 36.9902C662.65 36.8602 663.54 36.6902 664.49 36.5302C664.024 35.5673 663.454 34.6585 662.79 33.8202C653.07 24.0102 643.29 14.2502 633.57 4.43018C632.603 3.32707 631.714 2.15753 630.91 0.930176H637.91C644.48 7.71018 651.02 14.5302 657.64 21.2702C662.64 26.3702 667.82 31.2702 672.75 36.4702C673.75 37.5302 674.03 39.2702 674.64 40.7002C673.31 41.1402 671.98 41.9502 670.64 41.9602C637.72 42.0268 604.797 42.0268 571.87 41.9602C570.42 41.9602 568.98 40.9602 567.53 40.4202C568.2 39.0002 568.53 37.2802 569.6 36.2302C580.21 25.4502 590.94 14.7902 601.6 4.06018C602.451 3.07897 603.223 2.03241 603.91 0.930176H611.91Z" fill="#212C7B"/>
<path d="M659.91 761.93C659.61 752.06 664.06 744.64 672.24 739.65C680.85 734.4 689.95 734.53 698.71 739.39C707.47 744.25 711.09 752.32 711.91 761.93H659.91Z" fill="#212C7B"/>
<path d="M711.91 0.930176C711.15 10.2402 707.55 17.9302 699.34 23.0102C690.62 28.3702 681.53 28.5102 672.8 23.5202C664.28 18.6602 659.54 11.1202 659.91 0.930176H711.91Z" fill="#212C7B"/>
<path d="M505.91 761.93C505.85 751.263 505.793 740.597 505.74 729.93C505.74 724.1 505.74 724.06 499.74 724.04C484.91 724.04 470.08 724.04 455.25 724.04C449.06 724.04 449.04 724.04 449.03 718.04C449.03 703.047 449.03 688.047 449.03 673.04C449.03 667.73 449.03 667.69 443.77 667.65C428.783 667.53 413.783 667.427 398.77 667.34C397.28 667.424 395.784 667.32 394.32 667.03C393.887 666.865 393.502 666.596 393.197 666.247C392.892 665.899 392.677 665.481 392.57 665.03C392.625 664.568 392.793 664.128 393.06 663.747C393.327 663.367 393.685 663.058 394.1 662.85C395.368 662.477 396.691 662.325 398.01 662.4C414.677 662.4 431.343 662.4 448.01 662.4C453.82 662.4 454.01 662.68 454.01 668.75C454.01 683.75 454.01 698.75 454.01 713.75C454.01 718.96 454.17 719.06 459.35 719.07C474.51 719.07 489.673 719.07 504.84 719.07C510.47 719.07 510.84 719.39 510.84 725C510.84 737.333 510.84 749.667 510.84 762L505.91 761.93Z" fill="#212C7B"/>
<path d="M0.910156 572.93C10.4102 572.93 19.9101 572.93 29.4001 572.84C33.5301 572.84 33.6101 572.75 33.6301 568.72C33.6301 558.55 33.6301 548.38 33.6301 538.22C33.6301 532.85 33.8602 532.61 39.3002 532.57C49.6302 532.49 59.9702 532.35 70.3002 532.51C73.3002 532.51 73.9702 531.46 73.9402 528.76C73.8402 518.76 73.9402 508.76 73.9402 498.76C73.9402 492.24 74.0002 492.19 80.7302 492.17C91.8902 492.17 103.04 492.07 114.2 492.05C115.191 491.932 116.195 492.066 117.12 492.44C117.91 492.93 118.91 494.1 118.91 494.93C118.91 495.76 117.64 496.72 116.74 496.99C115.421 497.229 114.074 497.28 112.74 497.14C103.07 497.14 93.4102 497.14 83.7402 497.14C79.0502 497.14 79.0002 497.14 78.9902 501.78C78.9902 511.45 78.9902 521.11 78.9902 530.78C78.9902 537.56 78.9902 537.55 72.4402 537.55C62.7702 537.55 53.1102 537.55 43.4402 537.55C38.7902 537.55 38.6702 537.7 38.6702 542.29C38.6702 551.96 38.6702 561.62 38.6702 571.29C38.6702 577.82 38.6701 577.84 31.8801 577.85C21.5501 577.85 11.2101 577.85 0.880127 577.85L0.910156 572.93Z" fill="#212C7B"/>
<path d="M761.91 713.93C756.45 715.66 751 716.67 745.48 714.08C736.85 710.08 732.78 700.46 735.76 691.08C738.57 682.24 747.99 677.08 757.6 679.08C759.03 679.38 760.47 679.65 761.91 679.94V713.93Z" fill="#212C7B"/>
<path d="M0.910095 321.93C4.0101 324.93 7.23009 327.84 10.1501 331.02C12.0301 333.02 13.2201 333.28 15.3001 331.15C22.6901 323.54 30.3001 316.15 37.8101 308.65C43.0801 303.4 48.3601 298.15 53.5701 292.83C55.1401 291.23 56.8801 290.9 58.3401 292.41C59.6501 293.76 58.5101 294.99 57.3401 296.16C48.7401 304.667 40.1868 313.22 31.6801 321.82C27.3501 326.17 23.1601 330.66 18.6801 334.9C16.6801 336.76 16.9601 337.9 18.7401 339.69C25.9901 346.79 33.1401 353.99 40.3101 361.17C45.6001 366.46 50.9101 371.73 56.1401 377.08C57.5201 378.49 60.3301 379.91 58.0001 382.27C55.9301 384.37 54.1101 382.37 52.5501 380.81C43.1634 371.39 33.7668 361.973 24.3601 352.56C21.5401 349.73 18.7501 346.88 15.8901 344.1C12.7301 341.02 12.7501 341.1 9.63007 344.02C6.77007 346.71 3.80012 349.3 0.870117 351.93V344.93C9.87012 338.56 10.0301 336.28 1.7901 330.06C1.5701 329.9 1.18012 329.97 0.870117 329.93L0.910095 321.93Z" fill="#212C7B"/>
<path d="M309.91 761.93C315.07 756.73 320.14 751.43 325.43 746.37C327.58 744.3 327.71 743.06 325.43 740.86C316.11 731.86 307 722.54 297.83 713.34C296.797 712.5 295.92 711.485 295.24 710.34C295.042 709.84 294.966 709.3 295.018 708.764C295.07 708.228 295.249 707.713 295.54 707.26C296.13 706.69 297.69 706.74 298.64 707.06C299.59 707.38 300.11 708.35 300.81 709.06C310.003 718.24 319.2 727.42 328.4 736.6C331.71 739.89 331.77 739.9 334.99 736.69C344.08 727.69 353.11 718.54 362.22 709.52C363.87 707.88 365.7 704.72 368.22 707.45C370.46 709.83 367.46 711.59 365.93 713.13C357.25 721.88 348.49 730.54 339.76 739.25C335.35 743.65 335.36 743.66 339.96 748.25C343.61 751.89 347.3 755.51 350.91 759.2C351.653 760.048 352.322 760.958 352.91 761.92H345.91C341.72 757.48 337.55 753.02 333.34 748.6C331.85 747.05 330.71 748.08 329.58 749.22C325.373 753.48 321.15 757.717 316.91 761.93H309.91Z" fill="#212C7B"/>
<path d="M761.91 229.93C752.237 229.93 742.57 229.914 732.91 229.88C725.91 229.88 725.91 229.88 725.91 223.06C725.91 208.06 725.91 193.06 725.91 178.06C725.91 173.13 725.85 173.06 720.91 173.06C706.077 173.06 691.243 173.06 676.41 173.06C675.25 173.06 674.08 173.06 672.92 173.06C671.08 173.06 669.29 172.6 669.39 170.49C669.49 168.38 671.3 168.02 673.11 168.02H703.11C710.77 168.02 718.44 167.94 726.11 168.02C730.49 168.02 730.99 168.55 731 172.95C731 188.62 731 204.28 731 219.95C731 224.74 731 224.75 736 224.78L762 224.94L761.91 229.93Z" fill="#212C7B"/>
<path d="M0.910156 224.93C7.74016 224.88 14.5701 224.73 21.4001 224.8C26.1501 224.85 26.7001 225.49 26.7001 230.5C26.7001 244.66 26.7001 258.83 26.7001 272.99C26.7001 281.54 26.7002 281.56 35.0402 281.57H76.9902C77.9902 281.57 78.9902 281.64 79.9902 281.71C81.5502 281.82 83.4101 282.11 82.8901 284.1C82.6301 285.1 80.9501 286.15 79.7601 286.38C77.4919 286.736 75.1941 286.866 72.9001 286.77C63.9001 286.77 54.9002 286.63 45.9802 286.56C39.4802 286.51 32.9802 286.56 26.4802 286.41C21.9402 286.32 21.8102 286.13 21.8102 281.46C21.8102 265.96 21.8102 250.46 21.8102 234.96C21.8102 229.96 21.8102 229.96 16.9802 229.96C11.6502 229.96 6.31016 229.96 0.980164 229.96L0.910156 224.93Z" fill="#212C7B"/>
<path d="M0.910156 94.9302C3.76016 97.3402 6.71019 99.6502 9.44019 102.18C12.6702 105.18 13.0702 105.27 16.2302 102.12C25.4102 92.9535 34.5968 83.7868 43.7902 74.6202C45.2302 73.2002 46.7901 70.6202 49.0701 72.9502C51.3501 75.2802 48.5802 76.8501 47.2402 78.2201C38.0102 87.5901 28.6701 96.8402 19.4001 106.22C16.4001 109.22 16.4001 109.29 19.5201 112.4C28.7101 121.56 37.9402 130.69 47.0602 139.91C48.5402 141.41 51.5402 143.07 48.9902 145.57C46.4402 148.07 44.9301 144.83 43.5201 143.45C34.2401 134.33 25.0902 125.12 15.9102 115.93C12.7802 112.8 12.8302 112.82 9.66016 115.84C6.78016 118.57 3.83016 121.22 0.910156 123.91V116.91C3.13289 114.994 5.2525 112.961 7.26013 110.82C7.87013 110.13 8.00013 108.06 7.45013 107.48C5.37608 105.509 3.19265 103.656 0.910156 101.93V94.9302Z" fill="#212C7B"/>
<path d="M0.910156 665.93C2.02607 666.566 3.10758 667.26 4.15015 668.01C7.90078 671.056 12.4362 672.979 17.2329 673.557C22.0296 674.136 26.8921 673.346 31.2593 671.279C35.6264 669.213 39.3202 665.953 41.9143 661.877C44.5084 657.801 45.8971 653.075 45.92 648.243C45.943 643.412 44.5994 638.673 42.0442 634.572C39.489 630.472 35.8265 627.177 31.4792 625.069C27.1319 622.961 22.2771 622.125 17.4751 622.658C12.6731 623.191 8.11959 625.07 4.34015 628.08C3.18015 629 2.05016 629.98 0.910156 630.93V623.93C9.77016 617.93 19.2301 615.54 29.7601 618.93C33.8765 620.27 37.6634 622.463 40.8728 625.368C44.0822 628.273 46.6418 631.823 48.3838 635.786C50.1258 639.749 51.0109 644.035 50.9811 648.363C50.9514 652.692 50.0075 656.966 48.2112 660.904C46.4149 664.842 43.8069 668.357 40.5578 671.217C37.3088 674.078 33.492 676.219 29.3577 677.502C25.2233 678.785 20.8647 679.179 16.5671 678.66C12.2696 678.141 8.13024 676.72 4.42017 674.49C3.27824 673.909 2.10662 673.388 0.910156 672.93V665.93Z" fill="#212C7B"/>
<path d="M761.91 528.93C757.837 525.037 753.77 521.147 749.71 517.26C746.54 514.21 746.53 514.19 743.42 517.26C737.78 522.894 732.147 528.534 726.52 534.18C725.58 535.12 724.73 536.35 723.59 536.83C722.45 537.31 720.78 537.22 720.19 536.58C719.6 535.94 719.66 534.11 720.19 533.17C720.85 531.91 722.19 531 723.19 529.94C728.71 524.41 734.25 518.94 739.73 513.35C742.65 510.35 742.66 510.27 739.81 507.35C734.1 501.55 728.31 495.83 722.57 490.06C721.547 489.208 720.668 488.194 719.97 487.06C719.648 486.606 719.493 486.054 719.531 485.499C719.57 484.944 719.799 484.419 720.181 484.013C720.563 483.608 721.073 483.347 721.625 483.276C722.178 483.204 722.738 483.326 723.21 483.62C724.351 484.293 725.367 485.159 726.21 486.18C732.3 492.07 738.64 497.73 744.34 503.96C746.74 506.6 747.76 505.42 749.34 503.8C752.96 500.14 756.55 496.46 760.2 492.8C760.712 492.392 761.277 492.055 761.88 491.8V499.8C758.38 502.92 754.88 505.99 751.46 509.22C751.11 509.55 751.38 511.12 751.87 511.64C755.13 515.1 758.53 518.43 761.87 521.8L761.91 528.93Z" fill="#212C7B"/>
<path d="M498.91 0.930176L499.09 60.2302C499.09 65.0502 499.09 69.8635 499.09 74.6702C499.236 75.8215 499.154 76.9902 498.85 78.1102C498.47 78.9802 497.32 80.0602 496.53 80.0502C495.74 80.0402 494.6 78.9802 494.12 78.1102C493.818 77.161 493.736 76.1557 493.88 75.1702C493.88 50.4302 493.88 25.6835 493.88 0.930176H498.91Z" fill="#212C7B"/>
<path d="M510.91 0.930176C510.91 4.25018 511.04 7.59018 510.83 10.9302C510.64 14.0202 511.83 14.9302 514.83 14.9302C525.97 14.8002 537.11 14.9302 548.25 14.9302C552.74 14.9302 557.25 14.8202 561.71 14.9802C563.78 15.0502 567.11 13.8602 567 17.5402C566.91 20.6402 563.88 19.9002 561.86 19.9102C547.57 19.9602 533.27 19.9102 518.97 19.9102C516.15 19.9102 513.32 19.9602 510.49 19.9102C506.16 19.8102 505.8 19.5502 505.74 15.4502C505.67 10.6402 505.82 5.82018 505.87 1.00018L510.91 0.930176Z" fill="#212C7B"/>
<path d="M0.910156 36.9302C14.4202 39.9302 28.0601 32.4902 33.7101 21.5702C37.0501 15.1102 38.8002 8.27018 36.9102 0.930176H42.9102C42.9102 4.25018 43.1402 7.61018 42.7902 10.9302C41.8354 19.7669 37.6391 27.9362 31.0123 33.8593C24.3854 39.7825 15.7982 43.0392 6.91016 43.0002C4.91016 43.0002 2.91016 43.0002 0.910156 42.9302V36.9302Z" fill="#212C7B"/>
<path d="M408.91 0.930176C408.95 22.0168 408.993 43.1102 409.04 64.2102C409.15 64.862 409.102 65.5307 408.9 66.1602C408.35 67.0602 407.28 68.5402 406.82 68.4102C406.246 68.2289 405.714 67.9359 405.254 67.548C404.794 67.1601 404.416 66.6851 404.14 66.1502C403.65 65.0202 403.91 63.5502 403.91 62.2202C403.91 41.7935 403.91 21.3635 403.91 0.930176H408.91Z" fill="#212C7B"/>
<path d="M736.91 0.930176C736.84 6.85018 736.4 12.7602 739.01 18.4202C743.63 28.4202 750.94 34.8902 761.91 36.9302V42.9302C759.357 42.3032 756.84 41.5387 754.37 40.6402C739.23 34.2302 731.11 21.8002 731.14 5.34018C731.14 3.87018 730.99 2.40018 730.91 0.930176H736.91Z" fill="#212C7B"/>
<path d="M35.9102 761.93C37.2602 756.36 33.9102 752.33 30.9102 748.57C24.3802 740.25 15.5602 736.26 4.91016 736.73L0.910156 736.93V730.93C6.45016 731.58 12.2002 731.51 17.4902 733.03C29.4102 736.43 37.2902 744.5 41.2402 756.29C41.8702 758.14 42.3602 760.05 42.9102 761.93H35.9102Z" fill="#212C7B"/>
<path d="M241.91 0.930145C241.408 1.91355 240.805 2.8419 240.11 3.70015C234.43 9.49348 228.697 15.2368 222.91 20.9301C219.51 24.3001 218.91 24.3301 215.66 21.0701C209.02 14.3901 202.46 7.63015 195.87 0.900146H202.87C207.71 5.90015 212.5 10.9001 217.43 15.7401C218.01 16.3101 219.86 16.5902 220.27 16.1702C225.27 11.1702 230.03 6.02015 234.87 0.900146L241.91 0.930145Z" fill="#212C7B"/>
<path d="M155.91 761.93C162.837 754.85 169.77 747.77 176.71 740.69C177.99 739.39 179.49 738.69 181.02 740.25C188.013 747.45 194.977 754.677 201.91 761.93H194.91C190.17 756.93 185.42 751.93 180.71 746.93C179.2 745.31 178.11 746.26 177.02 747.39C172.28 752.243 167.577 757.09 162.91 761.93H155.91Z" fill="#212C7B"/>
<path d="M75.9101 761.93C81.0201 756.56 85.9101 751 91.2901 745.93C99.9301 737.63 97.2901 736.6 106.53 745.93C111.76 751.18 116.79 756.63 121.91 761.99H114.91L100.56 746.99C99.4501 745.84 98.3601 745.69 97.1801 746.99C92.4401 752.01 87.6834 757.01 82.9101 761.99L75.9101 761.93Z" fill="#212C7B"/>
<path d="M161.91 0.930176C159.98 3.13018 158.14 5.43018 156.1 7.53018C151.48 12.2602 146.73 16.8702 142.1 21.5802C140.39 23.3102 138.67 24.3002 136.62 22.1902C129.7 15.1235 122.797 8.03684 115.91 0.930176H122.91C127.71 5.91018 132.507 10.8868 137.3 15.8602C138.41 17.0202 139.51 17.1902 140.68 15.9502L154.91 0.930176H161.91Z" fill="#212C7B"/>
<path d="M761.91 328.93L730.13 297.3C729.54 296.71 728.61 296.18 728.48 295.49C728.179 294.32 728.285 293.082 728.78 291.98C729.09 291.5 730.94 291.6 731.86 291.98C732.856 292.583 733.736 293.358 734.46 294.27C742.34 302.143 750.223 310.01 758.11 317.87C759.32 318.958 760.589 319.98 761.91 320.93V328.93Z" fill="#212C7B"/>
<path d="M559.91 761.93C559.54 760.69 559.2 759.44 558.81 758.2C558.13 756.315 558.092 754.257 558.702 752.348C559.311 750.438 560.534 748.783 562.18 747.64C563.979 746.409 566.131 745.8 568.308 745.905C570.485 746.009 572.568 746.822 574.24 748.22C576.82 750.37 577.84 755.28 576.4 758.82C575.96 759.88 575.4 760.89 574.91 761.93H559.91Z" fill="#212C7B"/>
<path d="M0.910156 243.93C2.13492 243.459 3.38325 243.052 4.65015 242.71C6.50258 242.255 8.45153 242.396 10.2187 243.115C11.9859 243.833 13.4809 245.091 14.4902 246.71C15.5209 248.263 16.064 250.089 16.0498 251.952C16.0356 253.816 15.4646 255.633 14.4102 257.17C13.3558 258.707 11.8661 259.894 10.1324 260.578C8.39865 261.262 6.50003 261.413 4.68018 261.01C3.41018 260.74 2.17016 260.29 0.910156 259.93V243.93Z" fill="#212C7B"/>
<path d="M0.910156 680.93C11.3002 685.41 15.0902 701.1 5.04016 710.55C3.92016 711.61 2.30016 712.15 0.910156 712.93V680.93Z" fill="#212C7B"/>
<path d="M761.91 352.93C753.21 361.597 744.507 370.283 735.8 378.99C734.74 380.05 733.8 381.39 732.53 381.99C731.26 382.59 729.87 382.3 728.53 382.4C728.574 381.077 728.742 379.762 729.03 378.47C729.25 377.76 730.12 377.25 730.71 376.67C740.45 366.903 750.193 357.137 759.94 347.37C760.572 346.835 761.241 346.344 761.94 345.9L761.91 352.93Z" fill="#212C7B"/>
<path d="M761.91 671.93C748.57 661.72 745.81 639.73 759.85 626.13C760.488 625.653 761.18 625.25 761.91 624.93V631.93C755.14 638.8 754.13 647 756.74 655.84C757.65 658.92 758.57 662.27 761.91 663.93V671.93Z" fill="#212C7B"/>
<path d="M761.91 736.93C750.7 739.58 742.78 746.02 738.53 756.93C737.77 758.86 737.65 760.37 738.91 761.93H731.91C733.02 747.26 747.06 733.13 761.91 731.93V736.93Z" fill="#212C7B"/>
<path d="M292.91 0.930176C293.12 2.03018 293.28 3.14018 293.55 4.23018C294.55 8.23018 293.4 11.7202 290.36 13.9302C288.926 14.9111 287.238 15.4557 285.501 15.4983C283.763 15.5409 282.051 15.0796 280.57 14.1702C277.5 12.2802 276.08 8.73017 276.87 4.69017C277.12 3.42017 277.56 2.18018 277.87 0.930176H292.91Z" fill="#212C7B"/>
<path d="M605.91 761.93C610.41 757.11 614.91 752.26 619.46 747.54C619.853 747.275 620.307 747.114 620.779 747.072C621.251 747.03 621.727 747.108 622.16 747.3C627.08 751.85 632.68 755.79 635.91 761.93H629.91C627.61 759.55 625.29 757.18 623.03 754.77C622.03 753.68 620.94 752.95 619.71 754.28C617.39 756.78 615.17 759.37 612.91 761.93H605.91Z" fill="#212C7B"/>
<path d="M761.91 99.9301C758.14 96.4801 754.31 93.1001 750.61 89.5701C746.76 85.9001 743.03 82.0901 739.26 78.3301C738.67 77.7401 737.86 77.1601 737.68 76.4401C737.496 75.2529 737.442 74.049 737.52 72.8501C738.7 72.8501 740.16 72.5001 741.01 73.0501C742.601 74.2513 744.065 75.6117 745.38 77.1101C750.09 81.8201 754.75 86.5701 759.48 91.2601C760.237 91.8901 761.051 92.4491 761.91 92.9301V99.9301Z" fill="#212C7B"/>
<path d="M761.91 124.93C755.79 130.93 749.67 136.93 743.55 142.93C742.701 143.957 741.688 144.836 740.55 145.53C740.055 145.751 739.515 145.853 738.974 145.829C738.432 145.804 737.904 145.654 737.43 145.39C736.87 144.86 737.19 143.39 737.22 142.28C737.22 142.02 737.59 141.74 737.83 141.51L761.91 117.93V124.93Z" fill="#212C7B"/>
<path d="M761.91 446.93C758.12 443.24 754.37 439.51 750.54 435.86C748.37 433.86 748.54 431.86 750.54 429.92C754.31 426.25 758.11 422.59 761.9 418.92V426.92C754.54 431.92 754.46 432.99 761.03 438.46C761.305 438.641 761.596 438.795 761.9 438.92L761.91 446.93Z" fill="#212C7B"/>
<path d="M235.91 761.93C242.76 754.93 249.59 747.93 256.48 740.93C257.64 739.76 259.07 738.52 260.8 740.05C262.8 741.84 261.45 743.35 260.15 744.68C255.49 749.42 250.75 754.09 246.15 758.84C245.319 759.806 244.569 760.84 243.91 761.93H235.91Z" fill="#212C7B"/>
<path d="M81.9101 0.930176C74.9834 8.05018 68.0468 15.1702 61.1001 22.2902C59.9701 23.4502 58.3401 24.2902 57.3001 22.6702C57.0209 22.0507 56.8977 21.3722 56.9413 20.6941C56.9849 20.016 57.1939 19.3589 57.5501 18.7802C60.2601 15.6402 63.3401 12.8402 66.2501 9.88017C69.1601 6.92017 72.0201 3.88018 74.9101 0.930176H81.9101Z" fill="#212C7B"/>
<path d="M316.91 0.930176L300.49 17.5602C300.14 17.9102 299.74 18.2202 299.38 18.5602C298.19 19.6902 296.62 20.5602 295.59 18.9402C295.318 18.3197 295.204 17.6415 295.258 16.9662C295.312 16.2908 295.533 15.6394 295.9 15.0702C299.08 11.4802 302.62 8.20017 305.96 4.74017C307.024 3.52182 308.025 2.25018 308.96 0.930176H316.91Z" fill="#212C7B"/>
<path d="M493.91 761.93C493.91 754.28 493.91 746.63 493.91 738.93C493.804 737.949 493.938 736.957 494.3 736.04C494.72 735.29 495.89 734.38 496.53 734.51C497.532 734.893 498.379 735.596 498.94 736.51C499.27 736.95 499.13 737.79 499.12 738.51C499.074 746.317 499.01 754.127 498.93 761.94L493.91 761.93Z" fill="#212C7B"/>
<path d="M353.91 0.930176C357.99 5.04018 362.08 9.15018 366.13 13.2802C367.117 14.1539 367.949 15.1886 368.59 16.3402C368.717 16.7811 368.735 17.246 368.642 17.6953C368.55 18.1446 368.35 18.5649 368.06 18.9202C367.281 19.4204 366.343 19.6129 365.43 19.4602C364.88 19.4102 364.32 18.7802 363.86 18.3102C358.2 12.5302 352.533 6.73684 346.86 0.930176H353.91Z" fill="#212C7B"/>
<path d="M0.910156 522.93C4.69016 526.47 8.56017 529.93 12.1702 533.65C12.6602 534.16 12.2901 536.45 11.6301 536.9C11.0762 537.133 10.4734 537.226 9.875 537.17C9.27664 537.114 8.70133 536.912 8.20013 536.58C5.63013 534.58 3.32016 532.17 0.910156 529.93V522.93Z" fill="#212C7B"/>
<path d="M0.910156 490.93C3.18016 488.8 5.45017 486.66 7.74017 484.54C9.06017 483.32 10.5702 482.54 12.0402 484.1C13.5102 485.66 12.6902 487.03 11.3002 488.3C7.80017 491.47 4.37016 494.71 0.910156 497.93V490.93Z" fill="#212C7B"/>
<path d="M403.91 761.93C403.91 757.93 403.91 754.03 403.91 750.09C403.91 748.09 404.36 746.22 406.75 746.36C408.91 746.48 409.02 748.36 409.01 750.1C409.01 754.04 408.95 757.99 408.91 761.93H403.91Z" fill="#212C7B"/>
<path d="M761.91 258.93C756.91 254.31 756.91 249.22 761.91 244.93V258.93Z" fill="#212C7B"/>
<path d="M761.91 577.93C760.086 577.978 758.26 577.884 756.45 577.65C755.74 577.51 754.68 576.27 754.75 575.65C754.86 574.72 755.75 573.31 756.46 573.14C758.265 572.884 760.091 572.813 761.91 572.93V577.93Z" fill="#212C7B"/>
<path d="M573.91 0.930176C569.03 4.72018 565.91 4.72018 561.91 0.930176H573.91Z" fill="#212C7B"/>
<path d="M615.81 520.54C615.821 525.333 614.879 530.08 613.039 534.505C611.199 538.93 608.498 542.946 605.093 546.318C601.687 549.69 597.645 552.351 593.202 554.147C588.758 555.943 584.002 556.838 579.21 556.78C559.38 556.73 543.44 540.47 543.41 520.27C543.446 510.669 547.294 501.476 554.108 494.712C560.923 487.949 570.144 484.169 579.745 484.205C589.346 484.241 598.539 488.089 605.303 494.903C612.066 501.717 615.846 510.939 615.81 520.54Z" fill="#212C7B"/>
<path d="M194.14 130.75C194.273 138.176 191.45 145.351 186.293 150.696C181.135 156.04 174.066 159.118 166.64 159.25C159.214 159.383 152.039 156.56 146.695 151.403C141.35 146.245 138.273 139.176 138.14 131.75C138.054 128.034 138.708 124.338 140.065 120.877C141.423 117.416 143.455 114.261 146.045 111.594C148.634 108.927 151.729 106.802 155.148 105.344C158.568 103.886 162.243 103.123 165.96 103.1C182.15 102.93 194.78 116.65 194.14 130.75Z" fill="#212C7B"/>
<path d="M637.03 449.4C636.075 448.857 635.174 448.224 634.34 447.51C630.75 444.04 627.25 440.51 623.72 436.95L576.78 390C576.42 389.65 576.08 389.28 575.72 388.93C571.64 385.02 571.64 385.03 567.8 388.86C548.607 408.053 529.407 427.237 510.2 446.41C508.67 447.94 506.94 450.92 504.55 448.67C501.87 446.15 504.89 444.26 506.55 442.6C525.803 423.267 545.07 403.967 564.35 384.7C567.78 381.27 567.82 381.17 564.29 377.64C547.83 361.147 531.35 344.683 514.85 328.25C511.68 325.08 508.56 321.84 505.4 318.66C503.89 317.14 502.51 315.45 504.57 313.59C506.48 311.88 507.93 313.59 509.22 314.87C519.813 325.47 530.397 336.077 540.97 346.69C550.39 356.11 559.9 365.44 569.21 374.96C571.27 377.07 572.42 376.82 574.33 374.89C591.063 357.99 607.847 341.14 624.68 324.34C627.68 321.28 630.79 318.23 633.91 315.24C635.4 313.8 637.08 311.41 639.23 313.86C641.23 316.15 638.88 317.79 637.4 319.27C628.12 328.603 618.82 337.9 609.5 347.16C599.253 357.413 589.02 367.67 578.8 377.93C575.51 381.24 575.55 381.25 578.75 384.45C598.29 404.003 617.823 423.557 637.35 443.11C638.228 443.87 638.995 444.748 639.63 445.72C640.6 447.47 639.58 449.22 637.03 449.4Z" fill="#212C7B"/>
<path d="M218.91 473.07V526.01C219.009 527.173 218.982 528.343 218.83 529.5C218.6 530.5 218.1 532.12 217.4 532.31C216.796 532.429 216.174 532.414 215.576 532.267C214.979 532.12 214.42 531.845 213.94 531.46C210.16 527.95 206.59 524.23 202.94 520.58C169.387 487.034 135.853 453.483 102.34 419.93C101.593 419.268 100.891 418.557 100.24 417.8C98.6201 415.61 99.4201 413.62 102.14 413.12C103.299 412.988 104.467 412.961 105.63 413.04H211.02C212.02 413.04 213.02 413.04 214.02 413.04C218.25 413.18 218.74 413.68 218.85 418.1C218.85 419.43 218.85 420.76 218.85 422.1L218.91 473.07ZM160.99 418.07H113.91C112.74 418.07 111.58 418.07 110.41 418.07C108.48 418.07 108.5 418.95 109.6 420.17C110.04 420.67 110.51 421.17 110.98 421.61C143.96 454.603 176.96 487.58 209.98 520.54C211.076 521.429 212.263 522.2 213.52 522.84C213.64 521.53 213.87 520.22 213.87 518.92C213.87 486.92 213.87 454.92 213.87 422.92C213.87 418.07 213.87 418.04 208.87 418.04C192.897 418.033 176.91 418.037 160.91 418.05L160.99 418.07Z" fill="#212C7B"/>
<path d="M153.2 722.4C145.689 722.4 138.251 720.916 131.315 718.032C124.379 715.148 118.082 710.922 112.785 705.596C107.488 700.27 103.296 693.95 100.45 686.998C97.6034 680.047 96.1592 672.601 96.2001 665.09C96.3701 633.6 122.29 607.83 153.65 608.09C161.198 608.142 168.662 609.683 175.614 612.624C182.566 615.564 188.869 619.847 194.164 625.227C199.459 630.607 203.64 636.978 206.469 643.977C209.298 650.975 210.719 658.462 210.65 666.01C210.4 697.2 184.56 722.59 153.2 722.4ZM205.2 665.29C205.45 636.88 182.1 613.39 153.53 613.29C125.33 613.21 101.79 636.46 101.59 664.58C101.484 671.382 102.72 678.138 105.226 684.462C107.732 690.786 111.459 696.554 116.196 701.437C120.932 706.32 126.584 710.222 132.828 712.92C139.073 715.618 145.788 717.058 152.59 717.16C182.37 717.69 205.91 692.85 205.18 665.29H205.2Z" fill="#212C7B"/>
<path d="M502.46 249.36C502.61 280.27 477.26 305.8 446.64 306.29C439.137 306.443 431.678 305.115 424.688 302.382C417.699 299.649 411.317 295.566 405.907 290.365C400.497 285.164 396.165 278.947 393.159 272.071C390.154 265.195 388.533 257.793 388.39 250.29C387.71 219.29 412.96 192.78 444.24 192.29C451.833 192.128 459.383 193.484 466.444 196.28C473.506 199.076 479.938 203.255 485.361 208.572C490.785 213.889 495.092 220.236 498.028 227.24C500.964 234.245 502.471 241.765 502.46 249.36ZM497.22 249.06C497.68 221.94 474.83 197.29 445.35 197.37C431.618 197.452 418.473 202.951 408.773 212.671C399.073 222.392 393.603 235.548 393.55 249.28C393.37 277.81 417.62 301.43 445.82 301.2C473.6 300.98 497.83 277.7 497.22 249.06Z" fill="#212C7B"/>
<path d="M548.06 377.1C547.555 377.943 546.976 378.739 546.33 379.48C533.877 391.98 521.403 404.463 508.91 416.93C505.91 419.93 505.2 419.82 501.99 416.62C490.91 405.567 479.84 394.503 468.78 383.43C465.53 380.19 465.49 380.18 462.27 383.43C451.183 394.477 440.103 405.533 429.03 416.6C425.66 419.96 425.13 419.96 421.81 416.65C410.837 405.717 399.877 394.78 388.93 383.84C385.3 380.23 385.24 380.26 381.74 383.75C370.913 394.537 360.077 405.347 349.23 416.18C347.71 417.69 346 420.67 343.6 418.18C341.2 415.69 344.2 414.04 345.73 412.5C357.59 400.58 369.48 388.687 381.4 376.82C385.16 373.07 385.58 373.06 389.4 376.82C400.36 387.753 411.313 398.703 422.26 409.67C425.4 412.81 425.43 412.8 428.69 409.56L461.58 376.76C465.34 373.01 465.71 373.02 469.53 376.82C480.73 387.99 491.96 399.11 503.05 410.38C505.05 412.38 506.05 412.51 508.13 410.38C518.85 399.44 529.74 388.67 540.59 377.85C541.708 376.619 542.948 375.503 544.29 374.52C546.16 373.33 548.14 374.48 548.06 377.1Z" fill="#212C7B"/>
<path d="M426.98 116.23C427.74 135.7 411.57 158.89 383.3 158.37C361.59 157.98 342.43 138.98 342.68 116.01C342.824 104.846 347.334 94.1829 355.244 86.3043C363.154 78.4256 373.836 73.9585 385 73.8601C407.42 73.8701 427.65 92.9901 426.98 116.23ZM385.37 79.4101C375.782 79.2958 366.527 82.9265 359.575 89.53C352.622 96.1335 348.52 105.189 348.14 114.77C347.33 134.83 363.76 152.89 383.62 152.85C403.48 152.81 420.7 139.76 421.54 116.77C422.31 95.6601 404.72 79.6101 385.37 79.4101Z" fill="#212C7B"/>
<path d="M742.08 600.7C741.97 624.32 723.08 642.8 699.23 642.63C688.027 642.544 677.318 638.011 669.457 630.029C661.597 622.046 657.229 611.268 657.315 600.065C657.401 588.862 661.934 578.153 669.917 570.292C677.899 562.432 688.677 558.064 699.88 558.15C725.2 558.22 742.91 579.28 742.08 600.7ZM699.39 637.02C718.09 637.64 736.14 623.02 736.68 600.9C736.777 591.156 732.999 581.773 726.177 574.814C719.356 567.856 710.049 563.892 700.305 563.795C690.561 563.698 681.178 567.476 674.219 574.298C667.261 581.12 663.297 590.426 663.2 600.17C663.11 619.19 678.44 636.93 699.39 637.02Z" fill="#212C7B"/>
<path d="M193.41 237.52C179.07 237.52 164.74 237.57 150.41 237.44C148.865 237.401 147.397 236.759 146.32 235.65C145.88 235.12 146.78 232.83 147.68 231.92C162.44 217.03 177.33 202.26 192.1 187.37C194.24 185.23 195.59 186.44 197.1 187.91C202.773 193.537 208.44 199.177 214.1 204.83C222.693 213.423 231.28 222.03 239.86 230.65C240.592 231.31 241.262 232.037 241.86 232.82C243.5 235.26 242.81 236.82 239.86 237.39C238.866 237.521 237.862 237.561 236.86 237.51L193.41 237.52ZM194.82 232.07V232H227.82C228.819 232.085 229.824 232.069 230.82 231.95C231.051 231.782 231.235 231.558 231.356 231.299C231.476 231.04 231.529 230.755 231.51 230.47C230.942 229.638 230.27 228.882 229.51 228.22C218.46 217.17 207.34 206.22 196.39 195.03C194.56 193.17 193.79 193.52 192.16 195.18C184.72 202.8 177.16 210.25 169.57 217.77C165.803 221.53 162.053 225.31 158.32 229.11C157.87 229.724 157.506 230.397 157.24 231.11C157.907 231.481 158.615 231.773 159.35 231.98C160.347 232.072 161.35 232.089 162.35 232.03L194.82 232.07Z" fill="#212C7B"/>
<path d="M576.96 610.42C576.96 599.44 576.96 588.46 576.96 577.48C576.96 572.23 577.11 572.03 582.2 572.02C604.66 572.02 627.12 572.047 649.58 572.1C651.17 572.1 652.75 573.18 654.34 573.75C653.56 575.3 653.1 577.18 651.94 578.35C633.407 596.97 614.83 615.537 596.21 634.05C591.62 638.63 587.07 643.25 582.36 647.7C581.45 648.56 579.52 649.4 578.69 648.98C577.86 648.56 577.01 646.64 576.99 645.36C576.87 633.72 576.92 622.07 576.92 610.42H576.96ZM581.96 608.62C581.96 617.44 581.96 626.25 581.96 635.07C582.043 636.502 582.21 637.928 582.46 639.34C583.816 638.537 585.104 637.624 586.31 636.61C591.54 631.5 596.68 626.3 601.86 621.13C615.5 607.503 629.133 593.863 642.76 580.21C643.38 579.48 643.929 578.693 644.4 577.86C643.447 577.423 642.437 577.123 641.4 576.97C622.94 576.923 604.48 576.923 586.02 576.97C582.02 576.97 582.02 577.06 582.02 581.2C581.91 590.32 581.97 599.47 581.97 608.62H581.96Z" fill="#212C7B"/>
<path d="M74.1801 227.01C69.3674 227.134 64.579 226.287 60.1004 224.521C55.6217 222.755 51.5443 220.106 48.1113 216.73C44.6782 213.355 41.9598 209.324 40.1179 204.875C38.276 200.427 37.3482 195.654 37.3901 190.84C37.3401 169.92 53.1901 153.84 75.0501 154.08C94.5201 154.3 110.67 171.08 110.48 191.08C110.29 211.08 93.7201 227.29 74.1801 227.01ZM42.9701 190.43C42.3601 206.69 56.6601 221.77 73.9701 221.63C82.1191 221.595 89.9322 218.379 95.7437 212.666C101.555 206.954 104.905 199.197 105.08 191.05C105.39 173.8 91.5101 160 74.3901 159.57C59.3901 159.2 42.7701 172.12 42.9701 190.43Z" fill="#212C7B"/>
<path d="M361.91 473.03C361.64 454.42 376.02 434.64 400.6 434.12C421.83 433.68 439.52 451.63 439.6 472.78C439.698 477.932 438.769 483.053 436.869 487.843C434.968 492.633 432.134 496.997 428.531 500.681C424.927 504.365 420.627 507.295 415.881 509.301C411.134 511.307 406.035 512.349 400.882 512.366C395.729 512.382 390.624 511.373 385.864 509.398C381.105 507.422 376.786 504.52 373.159 500.859C369.532 497.198 366.669 492.853 364.738 488.075C362.807 483.297 361.846 478.183 361.91 473.03ZM366.91 472.81C366.877 479.481 368.819 486.011 372.492 491.58C376.164 497.149 381.403 501.506 387.547 504.102C393.692 506.699 400.467 507.418 407.02 506.171C413.573 504.923 419.61 501.764 424.37 497.091C429.13 492.418 432.401 486.441 433.77 479.912C435.139 473.384 434.546 466.596 432.064 460.405C429.582 454.213 425.323 448.894 419.823 445.119C414.324 441.344 407.83 439.281 401.16 439.19C396.705 439.141 392.284 439.973 388.152 441.639C384.019 443.304 380.257 445.77 377.081 448.894C373.904 452.018 371.377 455.74 369.643 459.844C367.91 463.948 367.005 468.355 366.98 472.81H366.91Z" fill="#212C7B"/>
<path d="M275.77 292.37C274.893 293.666 273.934 294.906 272.9 296.08C265.167 303.88 257.407 311.65 249.62 319.39C246.38 322.61 246.31 322.7 249.62 326.02L272.25 348.56C272.95 349.26 273.96 349.86 274.25 350.71C274.534 351.885 274.655 353.093 274.61 354.3C273.434 354.48 272.237 354.48 271.06 354.3C270.2 354.04 269.55 353.04 268.85 352.3C260.13 343.633 251.42 334.927 242.72 326.18C239.51 322.96 239.56 322.25 242.89 318.91C250.76 311.02 258.65 303.14 266.48 295.21C269.23 292.43 269.19 292.33 266.35 289.46C258.62 281.66 250.85 273.91 243.11 266.13C239.41 262.41 239.4 261.91 243.11 258.13C250.87 250.36 258.68 242.64 266.43 234.86C269.31 231.97 269.27 231.78 266.43 228.93C258.637 221.183 250.847 213.44 243.06 205.7C241.61 204.25 238.98 202.7 241.12 200.41C243.26 198.12 244.98 200.52 246.47 202C255.443 210.907 264.397 219.84 273.33 228.8C275.79 231.27 275.81 232.51 273.33 235.06C265.4 243.12 257.33 251.06 249.42 259.14C246.42 262.21 246.42 262.27 249.51 265.37C257.26 273.15 265.03 280.9 272.77 288.7C273.81 289.77 274.63 290.93 275.77 292.37Z" fill="#212C7B"/>
<path d="M426.77 585.07C433.1 585.07 439.43 585.07 445.77 585.07C450.09 585.12 450.66 585.68 450.69 590C450.69 601.17 450.69 612.33 450.69 623.5C450.69 627.82 450.76 627.88 455.12 627.89C465.96 627.89 476.79 627.89 487.62 627.89C492.99 627.89 493.24 628.11 493.27 633.55C493.33 644.21 493.27 654.88 493.27 665.55C493.27 670.46 493.4 670.55 498.33 670.55C508.66 670.55 519 670.55 529.33 670.55C530.49 670.55 531.81 670.24 532.79 670.67C533.95 671.18 534.79 672.35 535.79 673.23C534.941 674.058 534.006 674.793 533 675.42C532.2 675.646 531.36 675.693 530.54 675.56C518.37 675.56 506.21 675.56 494.04 675.56C488.46 675.56 488.16 675.21 488.14 669.56C488.14 658.89 488.14 648.23 488.14 637.56C488.14 632.94 488.06 632.9 483.43 632.89C472.76 632.89 462.1 632.89 451.43 632.89C445.72 632.89 445.69 632.89 445.67 626.89C445.67 616.23 445.67 605.56 445.61 594.89C445.61 590.2 445.49 590.07 440.87 590.05C430.04 589.99 419.21 590.05 408.37 589.97C406.37 589.97 403.37 590.92 403.3 587.63C403.23 584.34 406.17 585.08 408.21 585.06C414.38 585.06 420.54 585.06 426.71 585.06L426.77 585.07Z" fill="#212C7B"/>
<path d="M651 687.83C649.931 688.627 648.903 689.478 647.92 690.38C641.43 696.84 635.01 703.38 628.51 709.8C624.05 714.23 623.96 714.22 619.39 709.66C613.15 703.43 606.97 697.14 600.71 690.92C597.23 687.46 597.1 687.49 593.56 691.03C587.44 697.15 581.34 703.287 575.26 709.44C574.79 709.91 574.26 710.37 573.82 710.82C572.36 712.17 570.75 714.19 568.77 712.29C566.47 710.08 568.87 708.41 570.26 706.89C572.18 704.82 574.26 702.89 576.26 700.89C582.02 695.13 587.783 689.37 593.55 683.61C596.77 680.41 597.55 680.39 600.87 683.67C607.6 690.35 614.27 697.1 621.01 703.77C624.01 706.7 624.08 706.7 626.87 703.96C633.737 697.2 640.57 690.4 647.37 683.56C650.28 680.62 651.15 680.39 654.28 683.44C660.28 689.25 666.09 695.17 671.93 701.09C677.57 706.81 677.53 706.84 683.04 701.34L700.72 683.72C701.31 683.14 701.84 682.27 702.55 682.08C703.68 681.78 705.42 681.44 706.02 682.08C706.62 682.72 706.61 684.42 706.44 685.61C706.34 686.29 705.44 686.88 704.87 687.46C697.07 695.16 689.27 702.85 681.47 710.53C677.95 713.99 677.47 714.01 673.81 710.53C666.79 703.67 659.79 696.793 652.81 689.9C652.24 689.24 651.73 688.63 651 687.83Z" fill="#212C7B"/>
<path d="M390.26 619.47C389.538 620.485 388.757 621.457 387.92 622.38C380.42 629.94 372.897 637.48 365.35 645C364.47 646.002 363.525 646.944 362.52 647.82C359.91 649.82 360.52 651.42 362.6 653.43C370.92 661.58 379.15 669.82 387.38 678.07C388.465 679.072 389.374 680.248 390.07 681.55C390.267 681.998 390.318 682.497 390.213 682.974C390.109 683.452 389.856 683.885 389.49 684.21C389.124 684.534 388.664 684.735 388.177 684.782C387.69 684.828 387.201 684.719 386.78 684.47C385.277 683.435 383.892 682.238 382.65 680.9C374.883 673.133 367.137 665.347 359.41 657.54C356.24 654.34 356.2 654.29 352.9 657.54C345.1 665.27 337.36 673.06 329.57 680.82C328.478 682.07 327.232 683.176 325.86 684.11C325.06 684.58 323.13 684.59 322.81 684.11C322.271 683.024 322.157 681.776 322.49 680.61C322.71 679.77 323.78 679.14 324.49 678.44C332.817 670.06 341.15 661.683 349.49 653.31C352.24 650.53 352.24 650.45 349.37 647.58C341.15 639.34 332.88 631.14 324.66 622.88C323.11 621.31 320.32 619.64 322.55 617.18C324.93 614.56 326.71 617.42 328.24 618.94C336.61 627.19 344.88 635.56 353.24 643.83C356.06 646.63 356.24 646.61 359.05 643.83C367.45 635.53 375.79 627.17 384.17 618.83C384.936 617.956 385.826 617.198 386.81 616.58C388.47 615.67 390.21 616.84 390.26 619.47Z" fill="#212C7B"/>
<path d="M485.56 557.93C485.56 545.93 485.56 533.93 485.56 521.93C485.545 521.096 485.605 520.263 485.74 519.44C486.01 517.91 485.48 515.58 487.79 515.56C489.36 515.716 490.824 516.425 491.92 517.56C503.41 528.86 514.8 540.25 526.21 551.62C526.91 552.32 527.47 553.17 528.21 553.82C530.54 555.89 530.02 557.67 527.98 559.66C523.6 563.93 519.38 568.36 515.05 572.66C507.19 580.53 499.35 588.42 491.38 596.19C490.38 597.19 488.6 597.57 487.19 598.19C486.67 596.71 485.73 595.24 485.72 593.75C485.6 581.75 485.65 569.75 485.65 557.75L485.56 557.93ZM490.96 556.93C490.96 566.09 490.96 575.24 490.96 584.4C491.081 585.447 491.309 586.479 491.64 587.48C492.487 587.03 493.288 586.497 494.03 585.89C503.12 576.89 512.15 567.79 521.27 558.81C522.87 557.23 522.64 556.25 521.14 554.81C517.06 550.9 513.14 546.81 509.14 542.81C503.97 537.64 498.81 532.46 493.6 527.34C492.964 526.878 492.263 526.514 491.52 526.26C491.245 526.968 491.057 527.707 490.96 528.46C490.91 537.98 490.96 547.47 490.96 556.93Z" fill="#212C7B"/>
<path d="M302.11 540.68C302.62 549.56 295.41 557.43 286.33 557.9C284.088 558.05 281.838 557.756 279.709 557.037C277.58 556.317 275.614 555.185 273.922 553.705C272.231 552.225 270.848 550.427 269.851 548.413C268.855 546.398 268.265 544.207 268.115 541.965C267.965 539.723 268.259 537.473 268.979 535.344C269.698 533.215 270.83 531.249 272.31 529.557C273.79 527.866 275.588 526.483 277.603 525.486C279.617 524.49 281.808 523.9 284.05 523.75C292.71 523.17 301.91 529.13 302.11 540.68Z" fill="#212C7B"/>
<path d="M323.91 482.62C323.71 485.08 321.69 486.15 320.16 485.14C318.955 484.251 317.84 483.246 316.83 482.14L293.23 458.46C289.88 455.11 289.46 455.15 286.07 458.56C277.85 466.807 269.623 475.064 261.39 483.33C260.767 484.108 259.987 484.745 259.1 485.2C258.32 485.49 256.87 485.46 256.5 484.97C256.197 484.54 255.993 484.048 255.901 483.529C255.81 483.011 255.833 482.478 255.97 481.97C256.626 480.823 257.487 479.806 258.51 478.97C266.397 471.097 274.297 463.237 282.21 455.39C286.1 451.51 286.09 451.39 282.21 447.54L258.55 423.93C257.73 423.11 256.62 422.36 256.25 421.36C255.88 420.36 256.25 419.03 256.32 417.85C257.5 417.95 259.11 417.57 259.79 418.2C263.94 422.04 267.88 426.1 271.89 430.09C277.07 435.26 282.32 440.35 287.39 445.62C289.39 447.67 290.51 447.04 292.22 445.3C300.22 437.11 308.43 429.05 316.56 420.96C317.524 419.809 318.645 418.799 319.89 417.96C320.361 417.734 320.879 417.624 321.401 417.639C321.923 417.655 322.434 417.796 322.89 418.05C323.172 418.491 323.348 418.991 323.405 419.512C323.462 420.032 323.399 420.558 323.22 421.05C322.644 422.059 321.876 422.946 320.96 423.66C312.86 431.807 304.76 439.947 296.66 448.08C293.16 451.6 293.08 451.18 296.5 454.6C304.773 462.82 312.983 471.07 321.13 479.35C322.25 480.49 323.2 481.79 323.91 482.62Z" fill="#212C7B"/>
<path d="M169.01 250.65C168.26 251.662 167.452 252.631 166.59 253.55C159.88 260.26 153.12 266.92 146.4 273.62C142.7 277.32 142.7 277.37 146.26 280.93C152.73 287.41 159.26 293.82 165.72 300.33C167.44 302.07 170.94 303.91 168.2 306.69C165.65 309.27 163.87 305.92 162.2 304.3C155.55 297.76 148.98 291.15 142.37 284.57C139.2 281.42 138.82 281.35 135.58 284.57C129.05 290.99 122.67 297.57 116.1 303.94C114.38 305.6 112.6 309.41 109.77 306.72C106.94 304.03 110.66 302.16 112.31 300.46C118.92 293.65 125.7 287.01 132.36 280.25C135.11 277.47 135.11 277.37 132.25 274.48C125.457 267.62 118.637 260.787 111.79 253.98C111.32 253.51 110.71 253.16 110.3 252.66C109.08 251.19 107.95 249.54 109.83 247.9C111.48 246.46 112.94 247.58 114.17 248.81C120.903 255.477 127.62 262.183 134.32 268.93C134.91 269.52 135.48 270.13 136.04 270.74C137.95 272.84 139.69 273.14 141.88 270.85C147.97 264.47 154.2 258.24 160.43 251.99C161.901 250.419 163.537 249.011 165.31 247.79C167.18 246.56 169.21 247.93 169.01 250.65Z" fill="#212C7B"/>
<path d="M91.0401 249.26C91.0263 252.43 90.0743 255.526 88.3043 258.156C86.5343 260.786 84.0255 262.834 81.0938 264.041C78.1621 265.248 74.9387 265.56 71.8299 264.938C68.7211 264.316 65.8659 262.788 63.6241 260.546C61.3823 258.304 59.8542 255.449 59.2323 252.34C58.6103 249.231 58.9225 246.008 60.1293 243.076C61.3362 240.145 63.3838 237.636 66.0141 235.866C68.6444 234.096 71.7397 233.144 74.9101 233.13C77.0365 233.1 79.1473 233.497 81.1176 234.298C83.088 235.098 84.878 236.285 86.3817 237.788C87.8855 239.292 89.0725 241.082 89.8726 243.053C90.6728 245.023 91.0697 247.134 91.0401 249.26Z" fill="#212C7B"/>
<path d="M85.2601 583.29V558.38C85.1186 556.893 85.169 555.394 85.4101 553.92C85.7126 552.552 86.497 551.338 87.6201 550.5C88.2701 550.15 90.0401 551.13 90.8901 551.94C97.2001 558.06 103.41 564.29 109.66 570.49C112.84 573.65 116.05 576.77 119.17 579.99C121 581.86 121.58 583.68 119.29 585.93C109.6 595.48 100.06 605.19 90.3901 614.77C89.7201 615.43 87.8101 615.99 87.5001 615.66C86.5001 614.57 85.3601 613.05 85.3101 611.66C85.0901 605.53 85.2401 599.39 85.2501 593.25C85.2601 589.93 85.2501 586.62 85.2601 583.29ZM90.8001 583.08H90.9101C90.9101 589.23 90.9101 595.39 90.9101 601.55C91.0167 602.607 91.2209 603.651 91.5201 604.67C92.527 604.233 93.4773 603.676 94.3501 603.01C99.9101 597.51 105.423 591.964 110.89 586.37C113.89 583.26 114.01 583.01 111.02 579.93C105.34 574.08 99.5601 568.33 93.7701 562.59C93.0395 562.05 92.2344 561.619 91.3801 561.31C91.1217 562.223 90.9444 563.156 90.8501 564.1C90.7801 570.43 90.8001 576.75 90.8001 583.08Z" fill="#212C7B"/>
<path d="M256.09 46.7401C256.09 36.9501 256.09 27.1601 256.09 17.3701C256.053 16.2106 256.184 15.0519 256.48 13.9301C257.33 11.2501 259.21 10.6601 261.34 12.4501C263.24 14.0501 264.98 15.8401 266.74 17.6001C274.5 25.3401 282.247 33.0934 289.98 40.8601C292.75 43.6601 292.84 44.6401 290.09 47.4301C280.89 56.7634 271.623 66.0401 262.29 75.2601C261.29 76.2001 259.69 76.4301 258.36 76.9801C257.78 75.5501 256.71 74.1201 256.69 72.6801C256.53 64.0401 256.61 55.3901 256.61 46.7401H256.09ZM262.91 22.0201C262.503 22.9497 262.218 23.9277 262.06 24.9301C262.013 38.0568 262.013 51.1901 262.06 64.3301C262.213 65.0416 262.494 65.7193 262.89 66.3301C263.495 66.1153 264.064 65.812 264.58 65.4301C271.05 58.9901 277.45 52.4801 283.94 46.0601C285.33 44.6801 285.25 43.6801 283.94 42.3401C277.56 36.0401 271.24 29.6601 264.89 23.3401C264.266 22.849 263.604 22.4076 262.91 22.0201Z" fill="#212C7B"/>
<path d="M524.21 135.43C524.21 138.93 524.21 142.43 524.21 145.92C524.21 146.92 524.49 148.1 524.06 148.87C523.42 150.03 522.38 151.53 521.3 151.74C519.43 152.1 518.93 150.38 518.92 148.74C518.92 143.567 518.92 138.403 518.92 133.25V125.76C518.92 118.86 518.92 118.85 511.76 118.84C505.1 118.84 498.44 118.84 491.76 118.84C490.6 118.84 489.28 119.06 488.32 118.6C487.36 118.14 485.95 116.89 486.01 116.09C486.07 115.29 487.42 113.96 488.45 113.62C489.916 113.316 491.42 113.238 492.91 113.39C500.24 113.39 507.57 113.3 514.91 113.39C517.84 113.39 519.05 112.47 518.98 109.39C518.8 101.74 518.92 94.0801 518.98 86.3901C518.834 85.2337 518.881 84.061 519.12 82.9201C519.45 82.0101 520.43 80.8101 521.21 80.7401C521.742 80.7764 522.256 80.9444 522.706 81.2289C523.157 81.5135 523.529 81.9057 523.79 82.3701C524.214 83.8062 524.377 85.3066 524.27 86.8001C524.27 93.9601 524.27 101.12 524.27 108.28C524.27 113.28 524.27 113.28 529.18 113.35C536.67 113.35 544.18 113.35 551.66 113.35C553.89 113.35 557.02 112.72 556.98 116.14C556.94 119.56 553.72 118.73 551.57 118.76C543.92 118.86 536.26 118.76 528.57 118.82C524.21 118.82 524.18 118.93 524.17 123.4C524.17 127.4 524.17 131.4 524.17 135.4L524.21 135.43Z" fill="#212C7B"/>
<path d="M556.97 650.33C557.037 652.284 556.705 654.232 555.995 656.054C555.285 657.876 554.212 659.535 552.84 660.929C551.469 662.323 549.828 663.423 548.017 664.162C546.207 664.902 544.265 665.265 542.31 665.23C538.447 665.313 534.708 663.863 531.912 661.196C529.115 658.529 527.49 654.863 527.39 651C527.314 647.059 528.793 643.246 531.507 640.387C534.22 637.527 537.95 635.851 541.89 635.72C543.843 635.676 545.785 636.021 547.604 636.734C549.422 637.447 551.081 638.514 552.484 639.873C553.887 641.232 555.006 642.856 555.776 644.651C556.546 646.447 556.952 648.377 556.97 650.33Z" fill="#212C7B"/>
<path d="M147.91 357.01C151.91 357.01 155.91 356.87 159.91 357.01C162.74 357.14 163.73 356.1 163.68 353.29C163.56 345.47 163.6 337.64 163.68 329.82C163.68 327.64 162.86 324.36 166.1 324.19C169.99 323.99 168.87 327.52 168.9 329.8C168.97 337.62 169.02 345.44 168.9 353.26C168.85 356.07 169.78 357.04 172.6 356.99C180.42 356.84 188.25 356.92 196.07 356.99C197.387 356.861 198.717 356.997 199.98 357.39C200.458 357.648 200.869 358.015 201.178 358.462C201.487 358.909 201.687 359.422 201.76 359.96C201.76 360.7 200.46 361.9 199.61 362.03C197.287 362.297 194.948 362.397 192.61 362.33C185.95 362.33 179.29 362.43 172.61 362.33C169.8 362.33 168.81 363.33 168.85 366.13C168.96 373.62 168.85 381.13 168.85 388.6C168.85 389.6 168.85 390.6 168.85 391.6C168.85 393.6 168.23 395.51 166 395.44C164 395.38 163.57 393.52 163.57 391.7C163.57 383.7 163.57 375.7 163.57 367.7C163.57 362.95 163.23 362.52 158.5 362.42C150.85 362.24 143.19 362.33 135.5 362.24C133.44 362.24 130.5 362.72 130.44 359.76C130.38 356.8 133.13 356.99 135.35 357C139.51 357 143.67 357 147.83 357L147.91 357.01Z" fill="#212C7B"/>
<path d="M602.76 212.56C602.76 215.39 602.76 218.22 602.76 221.04C602.82 225.04 602.85 225.11 607.02 225.14C612.34 225.14 617.67 224.99 623.02 225.14C625.09 225.22 628.48 224.2 628.57 227.64C628.68 231.64 625.07 230.29 622.89 230.36C617.41 230.55 611.89 230.55 606.43 230.36C603.54 230.27 602.62 231.55 602.66 234.17C602.74 239.49 602.75 244.81 602.78 250.17C602.78 251.34 603.07 252.65 602.63 253.63C602.1 254.82 601.07 256.42 600.03 256.63C598.03 257 597.25 255.23 597.23 253.39C597.23 248.57 597.23 243.75 597.23 238.92C597.23 237.59 597.29 236.26 597.23 234.92C596.89 230.63 596.78 230.5 592.51 230.46C587.36 230.41 582.2 230.46 577.05 230.46C575.88 230.46 574.57 230.72 573.6 230.27C572.514 229.741 571.678 228.808 571.27 227.67C571.13 227.09 572.41 225.74 573.27 225.4C574.556 225.073 575.889 224.968 577.21 225.09C582.69 225.09 588.21 224.96 593.67 225.09C596.3 225.18 597.27 224.19 597.25 221.66C597.25 215.51 597.35 209.36 597.25 203.22C597.25 200.92 597.59 199 600.25 199.05C602.6 199.05 602.96 201.05 602.91 203.05C602.71 206.24 602.76 209.4 602.76 212.56Z" fill="#212C7B"/>
<path d="M627.24 267.09C630.73 267.09 634.24 266.9 637.71 267.2C638.88 267.3 640.71 268.47 640.9 269.41C641.29 271.55 639.42 272.04 637.61 272.05C632.45 272.05 627.29 272.16 622.13 272.05C619.63 271.99 618.5 272.76 618.55 275.42C618.63 280.57 618.18 285.74 618.55 290.86C618.77 294.15 617.45 295.01 614.64 295C609.64 295 604.64 295.12 599.64 295C596.64 294.91 595.52 296 595.64 299.08C595.81 303.89 595.7 308.73 595.55 313.55C595.43 317.49 595.05 317.86 591.2 317.91C584.88 317.99 578.55 317.91 572.2 317.91C571.7 317.91 571.07 318.07 570.73 317.83C569.762 317.114 568.831 316.35 567.94 315.54C568.94 314.64 569.81 313.06 570.84 312.97C574.47 312.65 578.15 312.85 581.84 312.85C583.67 312.85 585.51 312.72 587.33 312.85C589.9 313.02 590.85 311.99 590.8 309.39C590.71 304.23 591.03 299.07 590.88 293.92C590.79 290.8 591.99 289.82 594.97 289.92C599.63 290.08 604.29 289.97 608.97 289.92C613.43 289.92 613.42 289.85 613.41 285.58C613.41 281.09 613.32 276.58 613.41 272.1C613.5 267.62 614.02 267.2 618.3 267.1C621.3 267.04 624.3 267.1 627.3 267.1L627.24 267.09Z" fill="#212C7B"/>
<path d="M371.08 317.17C371.76 317.73 372.83 318.48 373.76 319.38C377.44 322.98 381.08 326.61 384.76 330.24C387.94 333.39 387.96 333.41 391.01 330.43C394.93 326.59 398.83 322.74 402.68 318.84C404.09 317.4 405.6 316.2 407.3 318.04C409 319.88 407.57 321.37 406.22 322.72C402.22 326.72 398.31 330.8 394.22 334.72C392.29 336.55 391.94 337.84 394.13 339.83C397.94 343.29 401.49 347.04 405.13 350.69C406.049 351.4 406.832 352.271 407.44 353.26C407.84 354.2 407.95 356.09 407.44 356.39C406.334 356.94 405.057 357.036 403.88 356.66C402.88 356.33 402.12 355.2 401.3 354.38C398.01 351.09 394.75 347.77 391.46 344.48C388.17 341.19 387.94 341.05 384.35 344.59C380.76 348.13 377.29 351.59 373.74 355.14C373.04 355.82 372.3 356.76 371.45 356.92C370.917 357.02 370.369 357.013 369.839 356.9C369.309 356.786 368.806 356.569 368.36 356.26C367.88 355.86 367.94 354.32 368.29 353.54C368.878 352.552 369.629 351.669 370.51 350.93C373.91 347.51 377.34 344.12 380.75 340.71C384.16 337.3 384.12 337.31 380.64 333.79C377.16 330.27 373.59 326.74 370.11 323.18C369.247 322.423 368.543 321.502 368.04 320.47C367.34 318.63 368.75 316.93 371.08 317.17Z" fill="#212C7B"/>
<path d="M328.33 71.2201C327.361 71.9012 326.432 72.6392 325.55 73.4301C321.78 77.1901 318.07 81.0201 314.3 84.7701C313.578 85.6607 312.637 86.3496 311.57 86.7701C311.027 86.8504 310.474 86.8182 309.944 86.6754C309.414 86.5326 308.919 86.2823 308.49 85.9401C308.03 85.5301 308.15 84.0501 308.49 83.2601C309.006 82.2162 309.719 81.2823 310.59 80.5101C314.27 76.9501 318.02 73.4601 321.71 69.9001C324.51 67.2101 324.53 67.0801 321.88 64.3701C318.39 60.8001 314.82 57.3201 311.3 53.7901C310.59 53.0801 309.87 52.3901 309.22 51.6301C308.16 50.3901 307.4 48.7701 309.1 47.8201C309.732 47.5849 310.41 47.4978 311.081 47.5654C311.751 47.633 312.398 47.8536 312.97 48.2101C314.909 49.7781 316.725 51.4932 318.4 53.3401C320.76 55.6801 323.18 57.9701 325.4 60.4101C328.66 63.9301 328.27 62.9301 331.18 60.3201C334.88 56.9801 338.24 53.2601 341.8 49.7701C343.38 48.2201 345.08 45.4001 347.47 47.9401C349.86 50.4801 346.93 51.9401 345.37 53.5401C341.98 56.9601 338.54 60.3301 335.16 63.7601C332.06 66.9201 332.06 66.9601 335.04 70.0001C338.3 73.3301 341.61 76.6101 344.89 79.9201C345.71 80.7401 346.89 81.4901 347.19 82.5001C347.61 83.7101 347.35 85.1601 347.38 86.5001C346.05 86.3001 344.27 86.5701 343.45 85.8201C339.17 81.8201 335.15 77.6601 331.01 73.5601C330.23 72.7901 329.32 72.0801 328.33 71.2201Z" fill="#212C7B"/>
<path d="M333.54 276.04C330.21 276.04 326.86 276.2 323.54 275.94C322.54 275.87 321.7 274.6 320.79 273.89C321.55 272.89 322.13 271.64 323.13 271.09C324.13 270.54 325.4 270.83 326.56 270.82C332.22 270.82 337.88 270.73 343.56 270.82C346.12 270.88 347.09 270.05 347 267.37C346.81 261.88 346.93 256.37 346.94 250.89C346.94 249.72 347.02 248.56 347.09 247.39C347.19 245.61 348.09 244.33 349.89 244.83C350.43 245.068 350.905 245.433 351.272 245.895C351.64 246.356 351.89 246.9 352 247.48C352.23 251.96 352.12 256.48 352.12 260.96C352.12 263.13 352.21 265.3 352.12 267.46C352.03 269.62 352.45 270.41 355.12 270.3C360.91 270.05 366.72 270.58 372.52 270.79C373.69 270.79 375 270.49 375.98 270.94C376.96 271.39 378.37 272.61 378.34 273.45C378.31 274.29 376.91 275.56 375.91 275.93C374.91 276.3 373.28 276.03 371.91 276.03C366.74 276.03 361.58 276.03 356.42 276.03C352.31 276.08 352.24 276.14 352.18 280.14C352.09 286.14 352.18 292.14 352.08 298.14C352.08 300.04 352.65 302.64 349.55 302.49C346.78 302.36 346.94 299.9 346.92 297.92C346.92 291.92 346.7 285.92 346.92 279.92C347.06 276.74 345.92 275.78 342.92 275.92C339.92 276.06 336.7 276.03 333.54 276.04Z" fill="#212C7B"/>
<path d="M518.91 177.44C518.91 174.61 518.91 171.78 518.91 168.96C518.91 166.87 518.91 164.51 521.61 164.56C524.31 164.61 524.08 167.28 524.12 169.16C524.24 174.64 524.12 180.16 524.19 185.62C524.19 190.55 524.25 190.62 529.19 190.62C534.13 190.62 539.19 190.62 544.19 190.62C545.36 190.62 546.66 190.35 547.64 190.78C548.62 191.21 549.49 192.39 550.4 193.23C549.4 194.14 548.47 195.76 547.4 195.83C542.93 196.13 538.4 195.98 533.94 195.99C524.17 195.99 524.17 195.99 524.16 205.64C524.16 209.79 524.16 213.95 524.08 218.11C524.08 219.92 524.19 222.11 521.54 222.11C518.89 222.11 518.9 220.11 518.9 218.22C518.9 212.22 518.9 206.22 518.84 200.22C518.84 196.07 518.74 196.01 514.73 195.97C509.24 195.91 503.73 195.97 498.26 195.97C497.107 196.101 495.939 196.009 494.82 195.7C493.94 195.31 492.82 194.2 492.82 193.39C492.916 192.863 493.137 192.366 493.464 191.942C493.791 191.518 494.215 191.177 494.7 190.95C495.976 190.605 497.304 190.494 498.62 190.62C504.11 190.62 509.62 190.53 515.08 190.62C517.75 190.62 519.08 189.85 518.89 186.91C518.68 183.76 518.89 180.59 518.89 177.43L518.91 177.44Z" fill="#212C7B"/>
<path d="M197.19 277.26C196.36 276.26 195.72 275.26 194.93 274.48C191.31 270.81 187.64 267.19 184 263.54C183.3 262.83 182.34 262.19 182 261.32C181.66 260.45 181.53 258.63 182 258.27C182.85 257.66 184.71 257.33 185.4 257.86C187.579 259.666 189.64 261.61 191.57 263.68C194.05 266.13 196.64 268.51 198.96 271.11C200.96 273.33 202.37 272.94 204.23 270.97C207.76 267.22 211.48 263.63 215.13 259.97C215.83 259.27 216.45 258.23 217.3 257.97C218.38 257.65 220.16 257.51 220.71 258.13C221.001 258.653 221.153 259.242 221.153 259.84C221.153 260.438 221.001 261.027 220.71 261.55C219.134 263.482 217.42 265.297 215.58 266.98C213.12 269.46 210.72 271.98 208.15 274.38C205.9 276.44 206.02 278.21 208.15 280.26C211.73 283.74 215.22 287.31 218.74 290.86C219.55 291.69 220.68 292.47 220.97 293.48C221.147 294.06 221.196 294.671 221.115 295.271C221.034 295.872 220.824 296.448 220.5 296.96C220.06 297.47 217.92 297.3 217.25 296.67C212.89 292.58 208.73 288.27 204.48 284.06C201.65 281.26 201.59 281.22 198.64 284.06C195.16 287.4 191.79 290.86 188.35 294.25C187.41 295.18 186.52 296.4 185.35 296.83C184.772 296.993 184.166 297.033 183.572 296.947C182.978 296.861 182.408 296.651 181.9 296.33C181.42 295.98 181.54 294.11 182.02 293.33C182.881 292.117 183.888 291.015 185.02 290.05C188.31 286.75 191.64 283.48 194.9 280.15C195.724 279.236 196.489 278.271 197.19 277.26Z" fill="#212C7B"/>
<path d="M636.4 45.4601H682.4C683.07 45.4601 683.73 45.4601 684.4 45.4601C686.16 45.4601 687.96 45.6901 688.03 47.9101C688.12 50.4201 686.17 50.7101 684.23 50.7701C683.39 50.7701 682.56 50.7701 681.73 50.7701H591.8C590.309 50.8996 588.807 50.8154 587.34 50.5201C586.44 50.2401 585.1 48.8801 585.24 48.2901C585.428 47.7243 585.728 47.2019 586.121 46.7537C586.515 46.3054 586.994 45.9404 587.53 45.6801C588.53 45.2101 589.81 45.4601 590.97 45.4601H636.44H636.4Z" fill="#212C7B"/>
<path d="M81.0401 117.93C81.0401 112.1 80.9101 106.28 81.1301 100.46C81.1799 99.6937 81.3826 98.945 81.7261 98.258C82.0696 97.5711 82.5469 96.9598 83.1301 96.4601C83.7401 96.0301 85.9401 97.0401 86.8801 97.9501C92.6001 103.51 98.2268 109.177 103.76 114.95C106.57 117.86 106.53 118.33 103.85 121.05C98.3701 126.62 92.8501 132.18 87.2501 137.61C86.1801 138.61 84.4801 139.02 83.0701 139.7C82.4101 138.12 81.2401 136.57 81.1701 134.97C80.9101 129.25 81.0401 123.58 81.0401 117.93ZM86.5201 117.81C86.5201 120.81 86.5201 123.81 86.5201 126.81C86.5201 128.47 87.2001 129.6 88.8501 128.06C91.6201 125.46 94.2501 122.72 96.9301 120.06C98.4401 118.53 98.0001 117.06 96.6701 115.72C94.1201 113.12 91.5701 110.53 88.9601 108C88.7442 107.781 88.4827 107.611 88.1941 107.504C87.9055 107.397 87.5969 107.355 87.2901 107.38C86.8801 107.52 86.5201 108.38 86.5101 108.94C86.4801 111.84 86.5201 114.83 86.5201 117.81Z" fill="#212C7B"/>
<path d="M696.18 328.75H661.18C660.02 328.75 658.73 329.02 657.72 328.61C656.71 328.2 655.22 327.09 655.21 326.28C655.2 325.47 656.48 324.2 657.48 323.61C658.24 323.16 659.48 323.41 660.42 323.41C684.42 323.41 708.42 323.41 732.42 323.41C734.67 323.41 737.83 322.93 737.71 326.25C737.59 329.57 734.37 328.76 732.18 328.77C720.17 328.78 708.17 328.75 696.18 328.75Z" fill="#212C7B"/>
<path d="M696.96 340.44C685.154 340.44 673.337 340.44 661.51 340.44C660.019 340.548 658.521 340.42 657.07 340.06C656.18 339.76 655.02 338.52 655.07 337.74C655.12 336.96 656.25 335.82 657.16 335.41C658.275 335.081 659.445 334.979 660.6 335.11C684.407 335.11 708.213 335.11 732.02 335.11C734.24 335.11 737.51 334.41 737.72 337.53C737.97 341.08 734.54 340.14 732.45 340.16C720.63 340.25 708.81 340.16 697 340.16L696.96 340.44Z" fill="#212C7B"/>
<path d="M92.1901 359.93C92.1901 348.62 92.1901 337.31 92.1901 326.01C92.1901 323.79 91.5101 320.56 94.8001 320.56C98.0901 320.56 97.4701 323.77 97.4701 326.01C97.4701 348.463 97.4701 370.913 97.4701 393.36C97.4701 397.61 96.3801 399.79 94.4701 399.23C91.4701 398.35 92.1601 395.61 92.1501 393.36C92.1501 382.22 92.1501 371.077 92.1501 359.93H92.1901Z" fill="#212C7B"/>
<path d="M336.84 163.78C338.509 163.826 340.131 164.346 341.515 165.279C342.9 166.212 343.991 167.52 344.66 169.05C345.211 170.716 345.271 172.504 344.833 174.203C344.395 175.902 343.478 177.439 342.19 178.63C341.306 179.396 340.344 180.066 339.32 180.63C337.8 181.47 338.45 181.99 339.46 182.63C340.804 183.252 342.056 184.056 343.18 185.02C346.25 188.36 345.59 194.28 342.02 197.08C341.107 197.804 340.053 198.331 338.926 198.626C337.799 198.921 336.622 198.979 335.471 198.796C334.321 198.613 333.22 198.192 332.241 197.561C331.261 196.93 330.423 196.102 329.78 195.13C328.582 193.212 328.175 190.904 328.645 188.691C329.115 186.479 330.426 184.536 332.3 183.27C332.58 183.09 332.92 183.02 333.19 182.83C333.93 182.33 334.65 181.83 335.38 181.26C334.753 180.766 334.083 180.328 333.38 179.95C330.08 178.51 328.67 175.95 328.56 172.46C328.49 171.336 328.652 170.209 329.038 169.151C329.424 168.092 330.025 167.125 330.802 166.31C331.58 165.495 332.518 164.849 333.557 164.414C334.596 163.979 335.714 163.763 336.84 163.78Z" fill="#212C7B"/>
<path d="M565.5 193.31C564.58 192.66 563.5 192.31 563.39 191.76C563.209 190.686 563.437 189.584 564.03 188.67C566.83 185.59 569.86 182.74 572.75 179.74C575.64 176.74 575.55 176.74 572.68 173.79C569.81 170.84 567.08 168.1 564.27 165.27C563.07 164.07 562.32 162.51 563.9 161.49C564.521 161.243 565.193 161.152 565.857 161.225C566.522 161.298 567.158 161.533 567.71 161.91C570.63 164.36 573.25 167.18 575.99 169.85C579.22 173.02 579.43 173.04 582.77 169.79C585.03 167.58 587.09 165.16 589.45 163.07C590.9 161.79 592.54 159.07 594.77 161.52C596.6 163.52 594.46 165.13 593.09 166.52C590.51 169.13 587.94 171.74 585.29 174.26C583.44 176.01 583.43 177.53 585.29 179.26C587.72 181.53 590.03 183.94 592.37 186.26C593.277 186.989 594.051 187.869 594.66 188.86C595.07 189.77 595.22 191.67 594.79 191.91C593.85 192.44 592.04 192.72 591.36 192.16C588.68 189.95 586.25 187.41 583.79 184.93C579.13 180.24 579.15 180.22 574.63 184.93C572.63 186.93 570.73 189.04 568.69 190.99C567.683 191.838 566.617 192.613 565.5 193.31Z" fill="#212C7B"/>
<path d="M306.09 326.93C303.115 326.855 300.287 325.623 298.205 323.496C296.123 321.369 294.952 318.515 294.94 315.539C294.929 312.563 296.077 309.699 298.142 307.556C300.207 305.413 303.026 304.159 306 304.06C307.538 304.05 309.063 304.344 310.486 304.926C311.91 305.508 313.204 306.366 314.293 307.452C315.383 308.537 316.247 309.827 316.835 311.248C317.423 312.669 317.724 314.192 317.72 315.73C317.642 318.75 316.377 321.618 314.201 323.714C312.025 325.81 309.111 326.965 306.09 326.93Z" fill="#212C7B"/>
<path d="M294.81 249.24C294.767 247.743 295.031 246.253 295.584 244.862C296.137 243.47 296.969 242.206 298.027 241.147C299.086 240.089 300.35 239.257 301.742 238.704C303.133 238.151 304.623 237.887 306.12 237.93C307.658 237.911 309.184 238.202 310.607 238.785C312.031 239.368 313.322 240.231 314.404 241.324C315.487 242.417 316.338 243.716 316.908 245.145C317.478 246.574 317.754 248.102 317.72 249.64C317.56 252.654 316.256 255.492 314.074 257.577C311.893 259.662 308.998 260.836 305.98 260.86C304.481 260.839 303.001 260.522 301.626 259.925C300.25 259.328 299.007 258.464 297.968 257.383C296.929 256.302 296.115 255.026 295.573 253.628C295.031 252.23 294.772 250.739 294.81 249.24Z" fill="#212C7B"/>
<path d="M648.64 180.98C647.641 181.63 646.686 182.345 645.78 183.12C643.05 185.8 640.39 188.55 637.7 191.27C636.34 192.64 634.8 193.92 633.08 192.04C631.55 190.36 632.94 188.97 634.08 187.76C636.85 184.89 639.49 181.87 642.49 179.27C644.86 177.27 644.26 175.9 642.34 174.12C639.41 171.42 636.63 168.54 633.81 165.72C632.55 164.45 631.58 162.98 633.17 161.41C634.76 159.84 636.17 161 637.41 162.22C640.24 165.04 643.09 167.83 645.88 170.68C647.59 172.44 649.09 172.68 650.88 170.73C653.63 167.85 656.59 165.16 659.43 162.36C660.81 161.02 662.25 159.62 664.03 161.58C665.61 163.32 664.17 164.64 663.03 165.83C660.24 168.68 657.45 171.53 654.59 174.31C652.81 176.03 652.59 177.5 654.59 179.31C657.59 182.16 660.59 185.1 663.29 188.22C664.06 189.11 664.64 191.22 664.13 191.97C662.97 193.75 661.2 192.97 659.9 191.69C657.05 188.9 654.28 186.02 651.44 183.23C650.546 182.433 649.611 181.682 648.64 180.98Z" fill="#212C7B"/>
<path d="M274.42 156.75C262.42 156.75 250.42 156.75 238.42 156.75C236.18 156.75 232.99 157.34 232.96 154.08C232.96 150.61 236.27 151.53 238.4 151.52C262.72 151.453 287.053 151.433 311.4 151.46C312.23 151.46 313.24 151.24 313.85 151.63C314.69 152.17 315.78 153.19 315.77 153.99C315.665 154.514 315.439 155.006 315.109 155.427C314.778 155.847 314.354 156.184 313.87 156.41C312.587 156.752 311.251 156.858 309.93 156.72H274.42V156.75Z" fill="#212C7B"/>
<path d="M274.91 171.77H310.41C311.41 171.77 312.57 171.48 313.41 171.88C314.361 172.568 315.203 173.394 315.91 174.33C315.131 175.249 314.249 176.074 313.28 176.79C312.66 177.16 311.65 176.92 310.82 176.92C286.66 176.92 262.497 176.92 238.33 176.92C236.15 176.92 232.91 177.68 232.95 174.26C232.99 170.84 236.34 171.86 238.43 171.85C250.59 171.72 262.75 171.77 274.91 171.77Z" fill="#212C7B"/>
<path d="M436.91 169.64C449.08 169.64 461.24 169.64 473.41 169.69C475.34 169.69 478.41 168.69 478.41 172.07C478.41 175.7 475.31 174.82 473.15 174.82C449.15 174.86 425.15 174.86 401.15 174.82C398.95 174.82 395.74 175.62 395.59 172.29C395.44 168.63 398.8 169.7 400.89 169.69C412.91 169.6 424.91 169.64 436.91 169.64Z" fill="#212C7B"/>
<path d="M274.43 136.25H239.43C238.1 136.25 236.66 136.51 235.48 136.07C234.3 135.63 233.71 134.49 232.84 133.66C233.592 132.708 234.478 131.869 235.47 131.17C236.26 130.75 237.42 130.99 238.42 130.98C262.567 130.933 286.717 130.89 310.87 130.85C312.028 130.743 313.194 130.943 314.25 131.43C314.677 131.755 315.032 132.165 315.29 132.636C315.549 133.106 315.705 133.625 315.75 134.16C315.75 134.78 314.64 135.8 313.86 136.01C312.543 136.262 311.197 136.336 309.86 136.23H274.43V136.25Z" fill="#212C7B"/>
<path d="M449.54 52.0002C448.713 52.5903 447.919 53.2246 447.16 53.9002C444.56 56.4702 442 59.0902 439.42 61.6702C438.72 62.3702 438.05 63.4402 437.22 63.6002C436.04 63.8482 434.81 63.6372 433.78 63.0102C433.35 62.7102 433.51 60.6802 434.08 60.0102C436.5 57.2802 439.17 54.7602 441.76 52.1702C445.81 48.1702 445.82 48.1102 441.76 44.0302C439.54 41.7802 437.27 39.5802 435.06 37.3202C433.85 36.0702 431.83 34.8302 433.78 32.8202C435.73 30.8102 437.34 32.4602 438.78 33.8702C441.39 36.4402 443.95 39.0502 446.6 41.5702C449.42 44.2602 449.48 44.2602 452.4 41.4502C455.15 38.7902 457.82 36.0702 460.54 33.3802C461.78 32.1602 463.21 31.0102 464.82 32.5702C466.43 34.1302 465.33 35.6402 464.13 36.8802C461.48 39.6302 458.75 42.3102 456.06 45.0302C453.16 47.9702 453.13 48.0302 455.84 50.8502C458.55 53.6702 461.58 56.4102 464.19 59.4202C464.94 60.2802 465.39 62.4202 464.86 63.1802C463.71 64.9402 461.96 64.2402 460.64 62.9302C457.64 60.0102 454.76 57.0502 451.82 54.1202C451.14 53.4402 450.4 52.7902 449.54 52.0002Z" fill="#212C7B"/>
<path d="M172.53 591.01C171.65 590.33 170.43 589.85 170.29 589.16C170.201 588.626 170.222 588.079 170.351 587.553C170.48 587.027 170.714 586.533 171.04 586.1C173.11 583.72 175.43 581.55 177.66 579.31C178.59 578.37 179.52 577.41 180.49 576.5C182.05 575.04 181.88 573.71 180.41 572.27C177.41 569.35 174.57 566.35 171.62 563.43C170.39 562.2 168.98 560.83 170.44 559.2C171.9 557.57 173.81 558.43 175.22 559.81C177.94 562.5 180.71 565.15 183.22 567.99C185.22 570.24 186.88 570.38 188.96 568.08C191.53 565.25 194.27 562.57 196.96 559.9C198.12 558.76 199.47 557.25 201.21 558.85C202.95 560.45 201.91 562.13 200.53 563.52C197.84 566.24 195.22 569.03 192.41 571.63C190.13 573.73 190.41 575.47 192.54 577.43C194.88 579.55 197.11 581.8 199.35 584.03C200.17 584.85 201.26 585.68 201.53 586.69C201.759 587.895 201.553 589.142 200.95 590.21C200.77 590.54 198.66 590.37 198.02 589.78C195.02 587.11 192.32 584.2 189.48 581.39C186.23 578.17 185.88 578.17 182.7 581.33C180.11 583.91 177.54 586.51 174.92 589.07C174.31 589.74 173.48 590.27 172.53 591.01Z" fill="#212C7B"/>
<path d="M696.42 346.93C708.42 346.93 720.42 346.87 732.42 346.93C734.49 346.93 737.86 345.93 737.74 349.54C737.64 352.54 734.62 351.9 732.56 351.9C708.434 351.94 684.3 351.94 660.16 351.9C659.32 351.9 658.34 352.15 657.7 351.79C656.703 351.103 655.784 350.308 654.96 349.42C655.81 348.59 656.53 347.42 657.56 347.01C658.59 346.6 659.85 346.86 661.01 346.85L696.42 346.93Z" fill="#212C7B"/>
<path d="M565.18 157.74C564.33 157.04 563.34 156.62 563.25 156.05C563.092 155.111 563.311 154.148 563.86 153.37C566.29 150.66 568.86 148.07 571.46 145.5C575.57 141.43 575.62 141.42 571.46 137.09C569.17 134.68 566.76 132.38 564.46 130.01C563.23 128.76 562.12 127.35 563.86 125.77C565.6 124.19 566.86 125.28 568.15 126.57C570.83 129.3 573.52 132 576.23 134.7C578.94 137.4 579.41 137.55 582.23 134.8C584.36 132.71 586.35 130.47 588.44 128.33C589.143 127.404 590.015 126.62 591.01 126.02C592.07 125.57 593.74 125.23 594.53 125.75C596.04 126.75 595.59 128.42 594.43 129.64C592.14 132.05 589.77 134.39 587.43 136.76C582.78 141.51 582.16 140.68 587.43 145.88C589.764 148.012 591.974 150.276 594.05 152.66C594.8 153.58 595.25 155.73 594.7 156.54C593.49 158.3 591.81 157.41 590.49 156.1C587.78 153.41 585.09 150.69 582.34 148.03C579.59 145.37 578.72 145.3 575.88 148.23C573.45 150.73 571.02 153.23 568.48 155.62C567.448 156.427 566.343 157.136 565.18 157.74Z" fill="#212C7B"/>
<path d="M141.37 510.48C141.299 513.443 140.077 516.261 137.962 518.337C135.847 520.412 133.007 521.582 130.043 521.598C127.08 521.613 124.227 520.474 122.091 518.42C119.954 516.367 118.702 513.562 118.6 510.6C118.548 509.077 118.801 507.559 119.346 506.136C119.891 504.713 120.715 503.414 121.771 502.316C122.827 501.217 124.092 500.341 125.493 499.741C126.893 499.14 128.4 498.826 129.923 498.818C131.447 498.81 132.957 499.108 134.363 499.694C135.77 500.28 137.045 501.142 138.112 502.229C139.179 503.317 140.018 504.607 140.577 506.025C141.137 507.442 141.406 508.957 141.37 510.48Z" fill="#212C7B"/>
<path d="M274.51 110.84H309.91C311.08 110.84 312.38 110.55 313.37 110.97C314.36 111.39 315.09 112.54 315.94 113.38C315.189 114.318 314.311 115.146 313.33 115.84C312.53 116.25 311.33 116 310.38 116H238.07H236.57C234.63 115.94 232.69 115.7 232.87 113.12C233.03 110.85 234.87 110.83 236.61 110.83H274.51V110.84Z" fill="#212C7B"/>
<path d="M496.36 480.77C508.49 480.77 520.63 480.77 532.76 480.77C534.76 480.77 537.76 479.86 537.76 483.17C537.76 486.48 534.88 485.74 532.83 485.74C508.563 485.74 484.293 485.74 460.02 485.74C459.36 485.74 458.51 485.99 458.02 485.67C456.982 484.836 456.003 483.93 455.09 482.96C455.942 482.116 456.9 481.386 457.94 480.79C458.926 480.577 459.944 480.549 460.94 480.71L496.36 480.77Z" fill="#212C7B"/>
<path d="M414.91 565.55C427.06 565.55 439.2 565.55 451.35 565.55C453.35 565.55 456.35 564.84 456.43 567.95C456.51 571.06 453.51 570.59 451.43 570.6C427.143 570.647 402.85 570.647 378.55 570.6C377.564 570.725 376.563 570.598 375.64 570.23C375.18 569.967 374.783 569.607 374.475 569.176C374.168 568.744 373.958 568.251 373.86 567.73C373.86 566.97 375.1 565.91 375.99 565.64C377.307 565.384 378.655 565.324 379.99 565.46H414.99L414.91 565.55Z" fill="#212C7B"/>
<path d="M613.4 69.7901H579.4C577.18 69.7901 574.61 69.9001 574.79 66.7901C574.95 64.1001 577.51 64.2101 579.45 64.2101C602.43 64.2101 625.41 64.2568 648.39 64.3501C649.04 64.3501 649.92 64.0801 650.32 64.4101C651.307 65.3191 652.223 66.3019 653.06 67.3501C652.16 68.1501 651.37 69.3501 650.32 69.6601C648.671 69.9603 646.99 70.041 645.32 69.9001H613.32L613.4 69.7901Z" fill="#212C7B"/>
<path d="M696.46 467.93C695.314 467.193 694.215 466.385 693.17 465.51C690.424 462.843 687.72 460.13 685.06 457.37C683.28 455.5 681.69 455.65 679.98 457.43C677.56 459.95 675.07 462.43 672.61 464.89C672.02 465.48 671.49 466.42 670.81 466.55C669.464 466.685 668.107 466.685 666.76 466.55C666.99 465.36 666.83 463.83 667.52 463.05C670.04 460.17 672.85 457.55 675.52 454.82C678.94 451.32 678.94 451.3 675.52 447.82C672.96 445.21 670.36 442.62 667.76 440.04C666.64 438.93 665.54 437.73 666.84 436.19C668.14 434.65 669.84 435.12 671.15 436.43C674 439.24 676.89 442.01 679.61 444.93C681.61 447.1 683.27 447.28 685.37 444.93C688.04 441.93 691 439.26 693.81 436.42C694.97 435.24 696.2 434.42 697.71 435.73C699.48 437.22 698.71 438.73 697.42 439.99C694.51 442.99 691.62 445.99 688.59 448.83C686.71 450.61 686.7 452 688.59 453.83C691.717 456.81 694.737 459.907 697.65 463.12C698.265 464.032 698.512 465.143 698.34 466.23C698.34 466.85 697.26 467.3 696.46 467.93Z" fill="#212C7B"/>
<path d="M665.18 127.53C664.431 128.635 663.62 129.697 662.75 130.71C660.21 133.34 657.65 135.96 654.96 138.43C652.76 140.43 652.58 142.09 654.96 144.17C657.81 146.71 660.47 149.47 663.11 152.23C664.2 153.38 665.83 154.72 664.22 156.49C662.61 158.26 660.94 157.28 659.54 155.87C656.84 153.16 654.06 150.53 651.54 147.7C649.54 145.46 647.91 144.93 645.71 147.7C643.504 150.186 641.168 152.553 638.71 154.79C638.12 155.37 637.6 156.3 636.91 156.46C635.586 156.655 634.246 156.719 632.91 156.65C633.06 155.46 632.79 153.89 633.45 153.15C636.21 150.05 639.26 147.21 642.18 144.25C645.1 141.29 644.99 141.36 642.18 138.48C639.49 135.76 636.71 133.14 634.04 130.4C632.75 129.06 631.35 127.46 633.34 125.73C635 124.28 636.34 125.47 637.62 126.73C640.55 129.68 643.62 132.52 646.43 135.55C648.08 137.31 649.3 137.26 650.92 135.55C653.92 132.41 656.92 129.33 660.12 126.43C661.154 125.763 662.387 125.473 663.61 125.61C664.01 125.55 664.5 126.68 665.18 127.53Z" fill="#212C7B"/>
<path d="M627.81 193.4C626.664 192.678 625.568 191.88 624.53 191.01C621.79 188.35 619.09 185.64 616.47 182.85C614.73 180.99 613.2 180.99 611.47 182.85C608.71 185.73 605.87 188.52 603.04 191.34C601.82 192.55 600.37 193.86 598.75 192.42C596.86 190.75 598.17 189.13 599.51 187.76C602.07 185.15 604.66 182.56 607.24 179.97C610.24 176.97 610.3 176.9 607.24 173.74C604.71 171.1 602.1 168.54 599.49 165.97C598.07 164.57 596.93 162.97 598.78 161.32C600.46 159.8 601.78 161.23 603.03 162.41C605.75 165.09 608.57 167.68 611.16 170.48C613.03 172.48 614.59 172.74 616.54 170.65C618.748 168.195 621.085 165.858 623.54 163.65C625.12 162.29 626.76 159.08 629.2 161.45C631.64 163.82 628.69 165.55 627.2 167.14C625.05 169.45 622.68 171.56 620.52 173.86C617.95 176.6 617.98 177.36 620.52 180.03C623.3 182.9 626.21 185.63 628.88 188.59C629.486 189.514 629.741 190.624 629.6 191.72C629.65 192.19 628.64 192.67 627.81 193.4Z" fill="#212C7B"/>
<path d="M83.9101 359.43V392.33C84.073 393.665 84.0054 395.018 83.7101 396.33C83.3401 397.33 82.1701 398.1 81.3401 398.97C80.5101 398.14 79.3401 397.43 78.9401 396.43C78.5101 395.25 78.7701 393.81 78.7701 392.43C78.7701 370.324 78.7701 348.22 78.7701 326.12C78.6216 324.971 78.6895 323.804 78.9701 322.68C79.3401 321.8 80.4701 320.68 81.2701 320.68C81.7934 320.783 82.2855 321.007 82.7073 321.333C83.1292 321.659 83.4691 322.079 83.7001 322.56C84.1501 323.56 83.9201 324.83 83.9201 326C83.9134 337.154 83.9101 348.297 83.9101 359.43Z" fill="#212C7B"/>
<path d="M688.57 261.48C688.57 250.813 688.57 240.173 688.57 229.56C688.411 228.072 688.475 226.569 688.76 225.1C689.14 223.93 690.34 223.03 691.18 222C692.124 222.98 692.959 224.06 693.67 225.22C694.06 226.04 693.77 227.22 693.77 228.22C693.77 250.34 693.77 272.453 693.77 294.56C693.77 295.73 694.01 297.04 693.56 298.01C693.11 298.98 691.9 299.77 691.02 300.63C690.24 299.73 689.02 298.95 688.76 297.9C688.478 296.434 688.408 294.936 688.55 293.45C688.563 282.777 688.57 272.12 688.57 261.48Z" fill="#212C7B"/>
<path d="M662.09 527.86C654.74 528.01 655.21 526.36 655.09 535.7C655.09 537.03 655.33 538.37 655.2 539.7C655.02 541.48 654.98 543.7 652.38 543.57C650.26 543.45 649.93 541.65 649.88 539.88C649.8 537.24 649.72 534.59 649.68 531.94C649.68 528.58 649.05 527.94 645.68 527.83C643.02 527.77 640.31 528.15 637.68 527.72C636.39 527.51 634.53 526.07 634.35 524.95C634 522.89 636.01 522.41 637.78 522.37C640.44 522.37 643.1 522.37 645.78 522.37C648.46 522.37 650.09 521.25 649.92 518.18C649.72 515.359 649.76 512.525 650.04 509.71C650.169 509.123 650.435 508.574 650.818 508.11C651.2 507.645 651.688 507.279 652.24 507.04C654 506.53 655.04 507.89 655.11 509.6C655.23 512.6 655.23 515.6 655.11 518.52C655.04 521.21 656.04 522.52 658.9 522.39C661.901 522.202 664.913 522.283 667.9 522.63C668.96 522.77 669.83 524.34 670.78 525.26C669.78 526.14 668.89 527.46 667.72 527.79C666.2 528.2 664.44 527.86 662.09 527.86Z" fill="#212C7B"/>
<path d="M63.2501 37.9302C66.0932 37.9302 68.8199 39.0596 70.8303 41.07C72.8407 43.0804 73.9701 45.8071 73.9701 48.6502C73.9701 51.4933 72.8407 54.22 70.8303 56.2304C68.8199 58.2408 66.0932 59.3702 63.2501 59.3702C60.407 59.3702 57.6803 58.2408 55.6699 56.2304C53.6595 54.22 52.5301 51.4933 52.5301 48.6502C52.5301 45.8071 53.6595 43.0804 55.6699 41.07C57.6803 39.0596 60.407 37.9302 63.2501 37.9302Z" fill="#212C7B"/>
<path d="M532.78 274.93C534.602 274.795 536.433 274.825 538.25 275.02C538.827 275.128 539.373 275.363 539.847 275.709C540.321 276.055 540.712 276.503 540.99 277.02C541.47 278.77 540.17 279.79 538.41 279.83C535.09 279.92 531.76 279.88 528.41 279.93C524.31 280 524.29 280.02 524.2 284.1C524.13 287.26 524.12 290.42 524.08 293.57C524.08 295.41 523.52 297.05 521.4 297.07C519.28 297.09 518.91 295.3 518.9 293.53C518.9 290.04 518.79 286.53 518.9 283.05C518.96 280.68 517.99 279.81 515.64 279.9C512.16 280.02 508.64 279.9 505.17 279.9C503.38 279.9 501.83 279.47 501.9 277.13C501.97 274.79 503.57 274.97 505.07 274.95C508.23 274.9 511.39 274.95 514.55 274.9C518.81 274.83 518.82 274.81 518.88 270.38C518.88 267.22 518.72 264.04 519.02 260.91C519.13 259.71 520.19 257.78 521.02 257.63C522.84 257.3 524.02 258.77 524.02 260.72C524.08 264.21 524.24 267.72 524.08 271.19C523.95 273.94 524.79 275.19 527.7 274.94C529.366 274.855 531.034 274.855 532.7 274.94L532.78 274.93Z" fill="#212C7B"/>
<path d="M272 657.81H302.48C303.623 657.677 304.779 657.718 305.91 657.93C306.85 658.23 308.34 659.36 308.23 659.8C307.894 660.971 307.158 661.986 306.15 662.67C305.44 663.14 304.21 662.88 303.22 662.88C282.73 662.88 262.22 662.88 241.75 662.83C239.61 662.83 236.22 663.73 236.17 660.42C236.17 656.52 239.77 657.89 241.97 657.87C252.01 657.75 262 657.81 272 657.81Z" fill="#212C7B"/>
<path d="M447.91 326.74C447.91 336.49 447.45 334.54 455.91 334.74C457.73 334.74 459.56 334.83 461.39 334.85C463.22 334.87 465 335.27 464.9 337.43C464.8 339.59 462.96 339.85 461.18 339.86C458.02 339.86 454.85 340.02 451.7 339.86C448.84 339.71 447.85 340.94 447.95 343.67C448.132 347.002 448.091 350.343 447.83 353.67C447.708 354.321 447.431 354.932 447.024 355.454C446.617 355.976 446.091 356.393 445.49 356.67C443.61 357.11 443.07 355.41 443.05 353.77C443.05 350.27 442.86 346.77 443.05 343.29C443.18 340.63 442.13 339.74 439.6 339.87C437.07 340 434.27 339.87 431.6 339.87C430.616 340.009 429.613 339.934 428.66 339.65C427.667 338.956 426.779 338.124 426.02 337.18C426.93 336.39 427.78 334.99 428.75 334.9C432.233 334.623 435.731 334.577 439.22 334.76C441.97 334.89 443.15 334 443 331.11C442.798 327.778 442.848 324.435 443.15 321.11C443.27 319.95 444.42 318.11 445.37 317.95C447.61 317.5 447.93 319.46 447.97 321.22C448.01 322.98 447.91 324.93 447.91 326.74Z" fill="#212C7B"/>
<path d="M755.11 251.93C755.12 253.179 754.878 254.416 754.398 255.569C753.919 256.722 753.212 257.766 752.319 258.639C751.426 259.512 750.367 260.196 749.204 260.649C748.041 261.103 746.798 261.318 745.55 261.28C743.112 261.236 740.786 260.245 739.065 258.517C737.344 256.789 736.363 254.459 736.33 252.02C736.303 249.495 737.279 247.062 739.043 245.255C740.807 243.448 743.215 242.414 745.74 242.38C746.985 242.384 748.216 242.635 749.363 243.118C750.51 243.602 751.549 244.308 752.421 245.197C753.293 246.085 753.979 247.138 754.441 248.294C754.902 249.45 755.13 250.686 755.11 251.93Z" fill="#212C7B"/>
<path d="M271.91 602.93H249.44C248.28 602.93 246.97 603.18 246 602.73C245.539 602.468 245.139 602.112 244.825 601.685C244.511 601.257 244.292 600.768 244.18 600.25C244.09 599.64 245.1 598.56 245.85 598.25C246.807 597.971 247.811 597.889 248.8 598.01C264.27 598.01 279.74 598.01 295.21 598.01C297.3 598.01 300.61 597.01 300.5 600.64C300.4 603.82 297.34 602.89 295.36 602.91C287.54 602.93 279.72 602.93 271.91 602.93Z" fill="#212C7B"/>
<path d="M623.2 98.9801C623.08 104.39 618.97 108.18 613.44 107.98C612.232 107.958 611.041 107.698 609.934 107.214C608.827 106.73 607.827 106.032 606.991 105.16C606.155 104.289 605.499 103.261 605.061 102.135C604.623 101.009 604.412 99.8078 604.44 98.6002C604.449 97.355 604.705 96.1241 605.193 94.9786C605.682 93.8332 606.392 92.796 607.284 91.9273C608.176 91.0585 609.232 90.3754 610.39 89.9176C611.548 89.4598 612.785 89.2363 614.03 89.2601C615.28 89.2637 616.517 89.5217 617.664 90.0185C618.811 90.5153 619.846 91.2405 620.703 92.15C621.561 93.0594 622.225 94.1339 622.655 95.3082C623.084 96.4825 623.269 97.7318 623.2 98.9801Z" fill="#212C7B"/>
<path d="M177.98 56.9302C183.58 57.3502 183.56 56.8502 183.58 51.0102C183.44 49.679 183.464 48.3356 183.65 47.0102C183.91 46.0102 185.05 44.4702 185.5 44.5602C186.098 44.6828 186.666 44.9227 187.17 45.266C187.675 45.6093 188.106 46.0491 188.44 46.5602C189 47.6402 188.81 49.1502 188.83 50.4702C188.95 56.5402 189.11 56.7002 194.95 56.7802C196.292 56.6616 197.644 56.7697 198.95 57.1002C199.448 57.3022 199.89 57.6212 200.238 58.0303C200.586 58.4394 200.83 58.9265 200.95 59.4502C200.825 59.9675 200.57 60.4446 200.21 60.8364C199.849 61.2282 199.395 61.522 198.89 61.6902C196.747 61.9905 194.577 62.0509 192.42 61.8702C189.94 61.7302 188.72 62.5102 188.89 65.2202C189.054 67.3806 188.957 69.553 188.6 71.6902C188.46 72.5102 187.08 73.8202 186.5 73.6902C185.933 73.5679 185.402 73.3142 184.95 72.9495C184.499 72.5848 184.139 72.1192 183.9 71.5902C183.562 69.4512 183.455 67.2821 183.58 65.1202C183.58 62.8302 182.65 61.7602 180.28 61.8902C178.46 61.9902 176.62 61.8902 174.79 61.8902C173.13 61.8902 171.79 61.4802 171.73 59.4702C171.67 57.4602 172.86 56.8802 174.58 56.8502C175.65 56.8602 176.81 56.9302 177.98 56.9302Z" fill="#212C7B"/>
<path d="M714.16 108.44C714.16 114.76 714.16 121.077 714.16 127.39C714.16 128.55 714.44 129.85 714.02 130.84C713.6 131.83 712.45 132.66 711.61 133.55C710.689 132.775 709.86 131.896 709.14 130.93C708.77 130.31 709.01 129.31 709.01 128.48V87.5802C709.01 86.9202 709.01 86.2502 709.01 85.5802C709.13 83.8702 709.93 82.4402 711.73 82.8702C712.67 83.0902 713.59 84.4602 714 85.5202C714.244 86.657 714.292 87.8273 714.14 88.9802C714.16 95.4668 714.167 101.954 714.16 108.44Z" fill="#212C7B"/>
<path d="M345.16 153.76C345.195 154.885 344.996 156.006 344.575 157.05C344.154 158.094 343.52 159.039 342.714 159.825C341.908 160.611 340.948 161.221 339.893 161.617C338.839 162.012 337.714 162.183 336.59 162.12C331.73 162.01 328.59 158.79 328.53 153.85C328.465 152.722 328.639 151.594 329.041 150.538C329.443 149.483 330.064 148.524 330.863 147.726C331.662 146.928 332.621 146.308 333.678 145.907C334.734 145.506 335.863 145.333 336.99 145.4C339.174 145.45 341.252 146.352 342.779 147.915C344.306 149.477 345.161 151.575 345.16 153.76Z" fill="#212C7B"/>
<path d="M465.64 133.93C465.594 135.005 465.336 136.06 464.881 137.035C464.427 138.011 463.785 138.887 462.992 139.614C462.199 140.341 461.27 140.905 460.259 141.273C459.249 141.641 458.175 141.807 457.1 141.76C456.025 141.714 454.97 141.456 453.995 141.001C453.02 140.547 452.144 139.905 451.417 139.112C450.689 138.319 450.126 137.39 449.757 136.379C449.389 135.369 449.224 134.295 449.27 133.22C449.457 131.051 450.481 129.04 452.126 127.613C453.771 126.187 455.906 125.458 458.08 125.58C460.168 125.743 462.115 126.699 463.521 128.252C464.927 129.804 465.685 131.836 465.64 133.93Z" fill="#212C7B"/>
<path d="M635.85 660.26C635.881 661.34 635.69 662.415 635.287 663.417C634.885 664.419 634.28 665.328 633.51 666.086C632.741 666.844 631.823 667.436 630.815 667.824C629.807 668.211 628.729 668.387 627.65 668.34C622.92 668.34 619.65 664.91 619.65 660.05C619.695 657.963 620.536 655.972 622.001 654.484C623.466 652.997 625.444 652.126 627.53 652.05C629.715 652.058 631.811 652.922 633.366 654.456C634.922 655.991 635.813 658.075 635.85 660.26Z" fill="#212C7B"/>
<path d="M448.21 525.56C449.894 525.583 451.503 526.257 452.7 527.441C453.897 528.625 454.589 530.227 454.63 531.91C454.63 535.48 451.38 538.81 448.05 538.76C446.3 538.739 444.629 538.023 443.407 536.77C442.184 535.518 441.509 533.831 441.53 532.08C441.551 530.33 442.267 528.659 443.52 527.437C444.772 526.214 446.46 525.539 448.21 525.56Z" fill="#212C7B"/>
<path d="M356.12 532.35C356.077 533.212 355.865 534.057 355.494 534.837C355.124 535.617 354.603 536.315 353.961 536.893C353.32 537.471 352.571 537.916 351.757 538.203C350.943 538.49 350.08 538.614 349.218 538.566C348.356 538.519 347.512 538.301 346.735 537.927C345.957 537.552 345.261 537.027 344.687 536.383C344.113 535.738 343.672 534.986 343.389 534.171C343.106 533.355 342.988 532.492 343.04 531.63C343.145 529.902 343.929 528.286 345.222 527.135C346.514 525.984 348.21 525.391 349.938 525.486C351.666 525.581 353.287 526.356 354.445 527.643C355.604 528.929 356.206 530.621 356.12 532.35Z" fill="#212C7B"/>
<path d="M356.13 516.72C356.176 517.601 356.045 518.482 355.743 519.311C355.441 520.14 354.976 520.9 354.374 521.545C353.773 522.19 353.047 522.707 352.242 523.066C351.436 523.425 350.566 523.618 349.684 523.633C348.802 523.649 347.926 523.486 347.108 523.156C346.291 522.826 345.548 522.334 344.924 521.71C344.3 521.087 343.808 520.344 343.478 519.526C343.147 518.708 342.985 517.832 343 516.95C343.082 515.292 343.75 513.717 344.886 512.506C346.022 511.296 347.551 510.528 349.2 510.34C350.951 510.318 352.645 510.966 353.933 512.153C355.222 513.339 356.008 514.973 356.13 516.72Z" fill="#212C7B"/>
<path d="M565.22 465.05C564.349 465.091 563.479 464.954 562.663 464.647C561.847 464.34 561.102 463.87 560.474 463.265C559.846 462.66 559.348 461.934 559.01 461.13C558.672 460.326 558.502 459.462 558.51 458.59C558.464 457.767 558.581 456.943 558.854 456.166C559.126 455.388 559.55 454.672 560.1 454.058C560.65 453.444 561.315 452.944 562.058 452.588C562.801 452.231 563.607 452.025 564.43 451.98C568.31 451.98 571.34 454.54 571.6 458.13C571.642 459.886 571 461.589 569.809 462.88C568.619 464.171 566.973 464.949 565.22 465.05Z" fill="#212C7B"/>
<path d="M655.66 231.74C655.688 232.401 655.585 233.061 655.356 233.681C655.128 234.302 654.778 234.871 654.328 235.356C653.878 235.84 653.336 236.231 652.734 236.504C652.132 236.778 651.481 236.929 650.82 236.95C649.565 236.975 648.35 236.509 647.433 235.652C646.516 234.795 645.97 233.614 645.91 232.36C645.831 231.112 646.222 229.879 647.007 228.906C647.792 227.932 648.914 227.288 650.15 227.1C651.486 227.03 652.799 227.47 653.822 228.332C654.845 229.193 655.502 230.412 655.66 231.74Z" fill="#212C7B"/>
<path d="M677.8 397.79C676.561 397.797 675.363 397.344 674.44 396.518C673.516 395.692 672.931 394.552 672.8 393.32C672.71 391.999 673.128 390.693 673.968 389.669C674.808 388.645 676.007 387.98 677.32 387.81C679.79 387.59 682.46 389.98 682.67 392.6C682.88 395.22 680.46 397.68 677.8 397.79Z" fill="#212C7B"/>
<path d="M682.69 660.26C682.646 661.513 682.134 662.703 681.254 663.596C680.375 664.488 679.192 665.018 677.94 665.08C677.277 665.159 676.604 665.093 675.969 664.886C675.334 664.679 674.752 664.336 674.263 663.881C673.773 663.426 673.389 662.87 673.137 662.252C672.884 661.633 672.769 660.967 672.8 660.3C672.778 659.043 673.249 657.827 674.113 656.913C674.976 655.999 676.164 655.46 677.42 655.41C678.756 655.377 680.053 655.864 681.036 656.769C682.02 657.674 682.613 658.926 682.69 660.26Z" fill="#212C7B"/>
<path d="M538.51 465.25C538.477 466.508 537.961 467.705 537.069 468.593C536.178 469.481 534.978 469.992 533.72 470.02C533.056 470.08 532.386 469.994 531.757 469.77C531.129 469.545 530.557 469.186 530.081 468.718C529.606 468.249 529.238 467.683 529.002 467.059C528.767 466.434 528.671 465.766 528.72 465.1C528.746 463.843 529.238 462.64 530.101 461.725C530.964 460.81 532.136 460.249 533.39 460.15C534.728 460.202 535.998 460.755 536.946 461.7C537.895 462.645 538.453 463.912 538.51 465.25Z" fill="#212C7B"/>
</svg>
